<svg xmlns="http://www.w3.org/2000/svg" xmlns:xlink="http://www.w3.org/1999/xlink" width="100" height="100" viewBox="0 0 100 100"><circle stroke="none" fill="#E67700" r="48%" cx="50%" cy="50%"></circle><g transform="translate(50 50) scale(0.69 0.69) rotate(0) translate(-50 -50)" style="fill:#000000"><svg fill="#000000" xmlns="http://www.w3.org/2000/svg" xmlns:xlink="http://www.w3.org/1999/xlink" version="1.1" x="0px" y="0px" viewBox="0 0 64 64" style="enable-background:new 0 0 64 64;" xml:space="preserve"><path d="M55,49.267V40h2c2.209,0,4-1.791,4-4c0-1.498-0.834-2.789-2.053-3.474C58.966,32.351,59,32.18,59,32c0-2.761-2.239-5-5-5  s-5,2.239-5,5c0,0.18,0.034,0.351,0.053,0.526C47.834,33.211,47,34.502,47,36c0,2.209,1.791,4,4,4h2v7.708  c-5.763-4.178-12.747-6.586-20.05-6.691v-3.989l1.909-1.804l1.555,1.555c1.562,1.562,4.095,1.562,5.657,0  c1.06-1.059,1.383-2.561,1.005-3.908c0.137-0.111,0.282-0.207,0.409-0.334c1.953-1.953,1.953-5.118,0-7.071  c-1.953-1.953-5.118-1.953-7.071,0c-0.127,0.127-0.224,0.272-0.334,0.409c-1.347-0.378-2.849-0.055-3.908,1.005  c-1.562,1.562-1.562,4.095,0,5.657l1.273,1.273l-2.181,2.06c-0.2,0.189-0.313,0.452-0.313,0.727v4.454  c-1.331,0.058-2.648,0.191-3.95,0.398V38h-2v3.823c-1.358,0.298-2.695,0.667-4,1.121V39h-2v4.705c-1.375,0.574-2.711,1.235-4,1.977  V42h-2v4.924c-1.406,0.94-2.738,1.991-4,3.128V46H7v6h0.01c-1.849,1.954-3.499,4.12-4.875,6.499l1.73,1.002  C4.574,58.276,5.36,57.109,6.209,56h4.243l1,3l5,1l4-1l2-3h3l8-4l-1-4l-5-1l-2.653-3.075C27.28,43.328,29.844,43,32.451,43  c6.221,0,12.211,1.789,17.353,4.97L48.451,50v3l-2,3l1,3h4l2,2h3l2.656-4.426c0.687,0.939,1.34,1.908,1.93,2.927l1.73-1.002  C60.71,54.943,58.061,51.842,55,49.267z"></path><path d="M6.464,27.258l6.988-12.103c0.19,0.181,0.38,0.364,0.557,0.561l2.399,2.674l0.142-0.143  c2.807-3.158,4.987-6.804,6.444-10.797c0.021-0.057,0.035-0.116,0.056-0.173l-3.716-0.783c-0.419-0.088-0.825-0.212-1.225-0.351  l0.356-0.616c0.552-0.957,0.225-2.18-0.732-2.732S15.552,2.57,15,3.526l-0.331,0.573C13.995,3.486,13.394,2.787,12.902,2l-6,10.392  c1.092,0.039,2.155,0.262,3.158,0.638L3,25.258L6.464,27.258z"></path><path d="M19.758,22.124c3.763-3.892,6.511-8.651,8-13.856L25.016,7.69c-0.051,0.147-0.089,0.298-0.143,0.444  c-1.544,4.23-3.854,8.093-6.866,11.479l-0.263,0.265L19.758,22.124L19.758,22.124z"></path></svg></g></svg>