<svg height='100px' width='100px'  fill="#000000" xmlns="http://www.w3.org/2000/svg" xmlns:xlink="http://www.w3.org/1999/xlink" version="1.1" x="0px" y="0px" viewBox="0 0 100 100" enable-background="new 0 0 100 100" xml:space="preserve"><rect fill="none" width="100" height="100"></rect><g><path d="M55.051,35.7c-0.027,0.078-0.039,0.131-0.066,0.17c-0.025,0.039-0.025,0.039-0.025,0.039l-0.299,0.064   c0,0-0.078-0.078-0.156,0c-0.076,0.078-0.115,0.129-0.115,0.168s0.039,0.053,0,0.117s0.051,0.026-0.039,0.064   c-0.092,0.039-0.195-0.09-0.273,0c-0.078,0.092-0.156,0.156-0.129,0.247c0.025,0.091,0.09,0.091,0.115,0.155   c0.027,0.065,0.066,0.131-0.064,0.195c-0.129,0.064-0.168,0.091-0.143,0.182s0.053,0.104,0.117,0.156c0.064,0.052,0.273,0,0.273,0   s0.076-0.053,0.129-0.078s0.158-0.078,0.215-0.091c0.059-0.013,0.244-0.104,0.262-0.117s0.068-0.052,0.107-0.143   s0.014-0.247,0.014-0.286c0-0.038,0.051-0.129,0.078-0.168c0.025-0.039,0.076-0.091,0.104-0.13c0.025-0.039,0.09-0.13,0.09-0.13   s-0.025-0.058,0.053-0.055s0.182-0.08,0.232,0c0.053,0.08,0-0.075,0.053,0.08c0.053,0.156,0.053,0.195,0.064,0.273   c0.014,0.078,0.066,0.078,0.027,0.155c-0.039,0.078-0.092,0.13-0.195,0.169s-0.039-0.078-0.104,0.039s0,0.156-0.014,0.233   c-0.014,0.078,0.156,0.065-0.014,0.078c-0.168,0.013-0.104-0.104-0.168,0.013s0.053,0.176,0.092,0.18   c0.039,0.002,0.154-0.029,0.193,0c0.039,0.028,0.039,0.094,0.053,0.132c0.012,0.039-0.025,0.039-0.156,0.144   c-0.129,0.104-0.246,0.155-0.285,0.221c-0.039,0.064,0.09,0.025,0.207,0c0.117-0.026,0.195-0.117,0.246-0.156   c0.053-0.039,0.131-0.091,0.209-0.091s-0.014-0.026,0.117-0.013c0.129,0.013,0.299,0.013,0.35,0.013   c0.053,0,0.092-0.039,0.156-0.052c0.064-0.014,0.09-0.039,0.195-0.078c0.104-0.039,0.221-0.208,0.232-0.246   c0.014-0.039,0.064-0.104,0.131-0.195c0.064-0.091-0.066-0.246-0.131-0.26c-0.064-0.013-0.195-0.091-0.232-0.156   c-0.039-0.064-0.273-0.285-0.352-0.35c-0.078-0.065-0.129-0.182-0.129-0.182l-0.143-0.324c0,0-0.117-0.234-0.066-0.247   c0.053-0.013,0.182-0.091,0.182-0.183c0-0.09,0.092-0.182-0.078-0.168c-0.168,0.013-0.143,0.091-0.168,0.013   c-0.025-0.077,0.078-0.13,0.053-0.259c-0.012-0.053-0.299,0.025-0.338,0c-0.039-0.026-0.221,0.182-0.26,0.207   s-0.039,0.025-0.039,0.025s-0.104,0.078-0.143,0.065s-0.195,0.001-0.195,0.001s-0.129,0.038-0.143,0.077   c-0.014,0.038,0.207,0.182,0.207,0.182s0.105,0.039,0.117,0.091c0.014,0.052,0.039,0.025,0.014,0.117   C55.051,35.7,55.076,35.623,55.051,35.7z"></path><path d="M52.193,30.417c0.053-0.156,0.209-0.675,0.52-0.831c0.313-0.156,0.623-0.467,0.727-0.779   c0.105-0.312,0.416-0.52,0.729-0.571c0.311-0.052,0.623-0.594,0.26-0.635c-0.365-0.041-0.572-0.115-0.883,0   c-0.313,0.116-2.502,0.119-2.73,0.116c-0.078-0.001-0.153-0.003-0.226-0.007c-0.995-0.041-1.376-0.235-1.666,0.007   c-0.312,0.259-0.623,0.415-1.091,0.312c-0.467-0.104-0.52-0.291-1.298-0.197c-0.169,0.02-0.313,0.039-0.437,0.057   c-0.326-0.258-0.326-0.516-0.677-0.348s-0.546,0.272-0.817,0.24c-0.273-0.033-0.507,0.033-0.74,0c-0.234-0.033-0.195,0.033-0.623,0   c-0.429-0.033-0.506-0.123-0.818,0c-0.311,0.123-0.116,0.308-0.623,0.293c-0.506-0.014-0.662-0.101-0.973,0.001   c-0.313,0.102-0.701,0.063-0.936,0.219c-0.232,0.156-0.311,0.057,0,0.281c0.313,0.225,0.701,0.147,0.857,0.225   c0.156,0.078,0.467,0.156-0.039,0.195s-0.917-0.117-1.023,0c-0.105,0.117-0.807,0.078-0.34,0.234   c0.468,0.156,1.48,0.156,1.675,0.194c0.194,0.039,0.468,0,0.468,0s0.155,0.152,0.35,0.018c0.195-0.134,0.273-0.251,0.623-0.407   c0.351-0.156,0.6-0.644,0.981-0.458c0.382,0.186,0.216-0.042,0.61,0.15l0,0c-0.335,0.13-0.582,0.24-0.582,0.24   s-0.156,0.052,0.26,0.363c0.415,0.312,1.298,0.416,1.453,0.52c0.156,0.104,0.572,0.208,0.572,0.467c0,0.26,0.051,0.26-0.208,0.571   c-0.26,0.312-0.312,0.26-0.415,0.623c-0.104,0.364-0.156,0.52-0.26,0.935c-0.104,0.416-0.363,0.416,0,0.831   s0.467,0.831,0.623,0.935c0.155,0.104,0.778-0.156,0.934,0c0.156,0.156,0.723-0.363,0.699-0.519s0.133-0.467,0.443-0.571   c0.313-0.104,0.986-0.364,1.143-0.416s0.104,0,0.676-0.26c0.57-0.259,1.136-0.727,1.424-0.831c0.289-0.104,0.808-0.312,0.964-0.363   C51.934,31.196,52.143,30.573,52.193,30.417z"></path><path d="M38.006,28.885c0.064,0.045,0.24,0.071,0.305,0.071c0.065,0,0.111-0.02,0.14-0.039c0.029-0.02,0.114-0.149,0.114-0.182   c0-0.032-0.114-0.162-0.114-0.162c-0.272-0.087-0.429-0.068-0.545,0C37.79,28.643,37.942,28.84,38.006,28.885z"></path><path d="M38.993,28.996c0.071,0.02,0.149,0.02,0.24,0s0.149,0.11,0.169-0.039c0.02-0.149,0.143-0.259,0-0.305   c-0.144-0.045-0.24-0.091-0.292-0.045c-0.053,0.045-0.059,0.058-0.072,0.078c-0.012,0.02-0.045,0.052-0.045,0.052   c-0.13,0.02-0.176,0.084-0.176,0.137C38.817,28.924,38.921,28.976,38.993,28.996z"></path><path d="M38.403,29.476c-0.215,0-0.215,0.104-0.215,0c0-0.104-0.025-0.221-0.123-0.221s-0.182-0.02-0.247,0   c-0.064,0.02-0.13,0.059-0.13,0.059c-0.11,0-0.182-0.039-0.312,0c-0.13,0.039-0.175,0.058-0.298,0.058   c-0.124,0-0.162-0.065-0.182,0S37,29.58,37.079,29.684c0.077,0.104,0.214,0.143,0.271,0.169c0.059,0.026,0.247,0.065,0.299,0.032   c0.053-0.032,0.136-0.195,0.214-0.195c0.079,0,0.085,0.02,0.241,0.059c0.155,0.039,0.207,0.059,0.317,0.045   s0.306,0.033,0.228-0.097S38.616,29.476,38.403,29.476z"></path><path d="M41.342,29.664c-0.091-0.052-0.137-0.168-0.428-0.149c-0.293,0.019-0.371,0.026-0.559,0.026   c-0.188,0-0.213-0.026-0.366-0.026s-0.321,0.006-0.374-0.02c-0.052-0.026-0.064-0.071-0.175-0.117   c-0.11-0.045-0.104-0.045-0.188-0.091s-0.302-0.121-0.436-0.091c-0.152,0.035-0.239,0.084-0.188,0.117   c0.052,0.032,0.318,0.045,0.357,0.078s0.155,0.039,0.051,0.104c-0.104,0.065-0.058-0.033-0.104,0.065   c-0.045,0.097-0.174,0.129-0.087,0.175c0.087,0.045,0.347,0.045,0.444,0.078s0.123,0.013,0.318,0.045   c0.194,0.032,0.298,0.059,0.408,0.078c0.11,0.019,0.455,0,0.552-0.007c0.098-0.006,0.272-0.071,0.331-0.078   s0.169-0.013,0.253-0.052C41.239,29.762,41.433,29.716,41.342,29.664z"></path><path d="M36.403,29.417c-0.02-0.078-0.123-0.313-0.305-0.228s-0.11,0.046-0.26,0.137s-0.383,0.117-0.383,0.117   c-0.292-0.071-0.324-0.149-0.324-0.168s0.052-0.124,0-0.182c-0.053-0.059-0.014-0.091-0.156-0.098s-0.318-0.052-0.454,0   c-0.137,0.052-0.085-0.052-0.221,0.078s-0.338,0.182-0.429,0.214c-0.091,0.033-0.098,0.007-0.272,0.045   c-0.175,0.039-0.317,0.045-0.324,0.078c-0.007,0.032,0.046,0.118,0.175,0.156c0.13,0.039,0.409,0.084,0.461,0.123   c0.052,0.039,0.266,0.091,0.318,0.137c0.052,0.045,0.098,0.107,0.292,0.119c0.194,0.011,0.564-0.093,0.708-0.112   c0.143-0.02,0.33-0.059,0.473-0.045c0.144,0.013,0.267,0.039,0.39-0.033c0.124-0.071,0.228-0.171,0.253-0.183   C36.371,29.561,36.422,29.496,36.403,29.417z"></path><path d="M37.275,30.036c-0.469,0.035-0.853-0.035-0.868,0.104c-0.015,0.139,0.172,0.19,0,0.19c-0.17,0-0.223-0.121-0.257,0   s-0.052,0.277,0,0.346s0.883,0,0.883,0s0.226-0.121,0.242-0.173C37.292,30.452,37.483,30.021,37.275,30.036z"></path><path d="M45.34,56.367c-0.415-0.301-0.207-0.352-0.623-0.561c-0.415-0.207-0.26-0.258-0.675-0.363   c-0.415-0.104-0.415-0.516-0.831-0.387c-0.415,0.127-0.675-0.16-0.986-0.303c-0.312-0.141-0.883-0.578-1.039-0.854   c-0.155-0.273-0.467-0.793-0.883-1.053c-0.415-0.26,0.156,0.053-0.415-0.26c-0.571-0.311-0.622-0.26-0.96-0.52   s-0.649-0.674-0.649-0.674s0.208,0.039-0.468-0.215c-0.675-0.253-0.83-0.46-1.142-0.46s0.363-0.312-0.728,0   c-1.09,0.312-1.246,0.104-1.558,0.466c0,0,0.312-0.051,0,0.156s-0.104-0.104-0.312,0.207c-0.207,0.313,0.053,0-0.207,0.313   c-0.26,0.311-0.26,0.223-0.313,0.475c-0.051,0.252,0.208,0.201,0,0.668c-0.207,0.467-0.207,0.756-0.207,0.896   c0,0.143,0.363,0.143,0,0.453c-0.363,0.313-0.208,0-0.363,0.313c-0.156,0.311-0.26,0.518-0.416,0.934   c-0.155,0.416-0.311,0.236,0,0.768c0.313,0.531,0.728,0.115,0.468,0.791c-0.26,0.674-0.415,0.934-0.104,1.35   c0.313,0.416,0.936,0.52,1.091,0.727s0.329,0.313,0.502,0.52s0.744,0.52,0.849,0.674c0.104,0.156,0.311,0.469,0.415,0.676   c0.104,0.207-0.312-0.051,0,0.52s-0.174,1.922,0.017,2.285c0.191,0.363-0.062,0.414,0.091,0.883c0.152,0.467-0.152,0.26,0,0.986   s0.619,1.246,0.619,1.453s-0.104,0.895,0,0.992c0.104,0.098-0.104,0.617,0,1.033c0.104,0.416,1.247,2.129,1.506,2.439   c0.26,0.313,0.468,0.469,0.728,0.676s1.609,0.26,1.453,0c-0.155-0.26-0.883-1.193-0.883-1.193s-0.155-0.365-0.155-0.52   c0-0.156,0.104-1.092,0.104-1.352c0-0.258,0-1.084,0-1.084s0.208-0.213,0.364-0.266c0.155-0.051,0.583-0.52,0.583-0.52l0.351-0.104   c0,0-0.207-0.414,0-0.57c0.208-0.156,0.416-0.674,0.416-0.674l0.571-0.262c0,0,0.363-0.674,0.467-0.883   c0.104-0.207,0.364-0.934,0.364-0.934s-0.053-0.209,0-0.363c0.051-0.156,0.311-0.701,0.311-0.701s-0.26-0.131,0-0.182   c0.26-0.053,0.779-0.416,0.779-0.416s0.779-0.104,0.883-0.779c0.104-0.674,0.26-0.623,0.26-1.4c0-0.779,0-1.092,0-1.092   l0.415-0.896C45.029,58.182,45.756,56.666,45.34,56.367z"></path><path d="M80.57,48.371c-0.08-1.53-0.273-3.051-0.578-4.54c-0.402-1.966-1.004-3.899-1.785-5.747   c-0.768-1.813-1.717-3.564-2.822-5.2c-0.715-1.058-1.498-2.074-2.34-3.037c-0.449-0.514-0.916-1.012-1.398-1.494   c-1.385-1.385-2.908-2.643-4.529-3.738c-1.637-1.105-3.387-2.055-5.201-2.822c-1.848-0.782-3.781-1.382-5.748-1.784   c-2.016-0.413-4.092-0.622-6.167-0.622c-2.077,0-4.152,0.209-6.17,0.622c-1.966,0.402-3.899,1.002-5.747,1.784   c-1.813,0.767-3.563,1.717-5.2,2.822c-1.621,1.095-3.146,2.353-4.53,3.738c-0.815,0.814-1.585,1.677-2.305,2.579   c-0.503,0.632-0.982,1.283-1.434,1.951c-0.388,0.574-0.756,1.161-1.104,1.761c-0.645,1.11-1.22,2.261-1.718,3.439   c-0.782,1.848-1.382,3.781-1.784,5.747c-0.413,2.018-0.622,4.093-0.622,6.17c0,2.076,0.209,4.152,0.622,6.167   c0.402,1.967,1.002,3.9,1.784,5.748c0.767,1.814,1.717,3.564,2.822,5.201c1.095,1.621,2.353,3.145,3.738,4.529   c1.385,1.385,2.909,2.643,4.53,3.738c1.637,1.105,3.387,2.055,5.2,2.822c1.848,0.781,3.781,1.383,5.747,1.785   c2.018,0.412,4.093,0.621,6.17,0.621c2.076,0,4.152-0.209,6.167-0.621c1.967-0.402,3.9-1.004,5.748-1.785   c1.814-0.768,3.564-1.717,5.201-2.822c1.621-1.096,3.145-2.354,4.529-3.738s2.643-2.908,3.738-4.529   c1.105-1.637,2.055-3.387,2.822-5.201c0.781-1.848,1.383-3.781,1.785-5.748c0.412-2.016,0.621-4.092,0.621-6.167   C80.613,49.457,80.6,48.913,80.57,48.371z M79.369,49.986c-0.156-0.164-0.205-0.388-0.123-0.513   c0.025-0.037,0.064-0.078,0.115-0.121C79.367,49.563,79.369,49.774,79.369,49.986z M50,79.369   c-16.195,0-29.369-13.176-29.369-29.369c0-4.758,1.137-9.254,3.152-13.231c0.245-0.048,0.648-0.183,0.648-0.183   s0.272,0.273,0.117,0.584c-0.156,0.313-0.078,0.155-0.234,0.643c-0.155,0.487-0.155,1.694-0.155,1.811   c0,0.117-0.155,0.429-0.312,0.662c-0.156,0.234-0.856,1.13-0.935,1.52c-0.078,0.389-0.194,1.012,0.078,1.479   s0.429,0.545,0.467,0.856c0.039,0.312,0.117,0.351,0.117,1.168c0,0.818-0.117,0.857,0.194,1.285   c0.312,0.429,0.429,0.579,0.623,0.737c0.195,0.159,0.39,0.036,0.429,0s-0.117-0.464-0.194-0.581   c-0.078-0.117-0.156-0.506-0.156-0.623s0-0.584,0-0.584s0-0.195,0.117-0.195c0.116,0,0.389,0.39,0.389,0.39   s0.039,0.116,0.195,0.312c0.155,0.195,0.312,0.428,0.35,0.545c0.039,0.117,0.156,0.273,0.234,0.467   c0.078,0.195,0.233,0.35,0.233,0.35s-0.039,0.352-0.039,0.703c0,0.35,0.272,0.545,0.585,0.816c0.311,0.273,0.584,0.352,0.855,0.546   c0.273,0.194,1.169,0.194,1.169,0.194s0.272-0.078,0.506,0s0.585,0.429,0.585,0.429s0.817,0.429,1.051,0.584   s0.39-0.077,0.545,0.233c0.156,0.312,0.429,0.468,0.545,0.701c0.117,0.234,0.818,0,0.818,0s-0.272-0.467-0.506-0.584   c-0.234-0.117-0.313-0.466-0.313-0.583s0.195-0.74,0.078-0.779c-0.116-0.039-0.506-0.311-0.74-0.311   c-0.232,0-0.428-0.039-0.545-0.039c-0.116,0,0-0.391,0.078-0.507s0.506-0.974,0.351-1.013s-0.039-0.194-0.351-0.117   c-0.312,0.078-0.467,0.352-0.701,0.468c-0.233,0.117-0.35,0.155-0.662,0.194c-0.311,0.039-0.623-0.039-0.739-0.194   c-0.117-0.155-0.39-1.168-0.39-1.168s0.113-0.623,0.232-0.935c0.118-0.312,0.663-1.013,0.936-1.051   c0.273-0.039,0.74-0.234,1.13-0.234s0.661-0.117,0.935-0.039c0.272,0.078,0.935-0.194,1.168-0.039   C32.805,44.842,33,44.959,33,45.192c0,0.234-0.117,0.468,0.038,0.701c0.156,0.234,0.468,0.468,0.507,0.156s0.039-0.974,0.039-1.09   c0-0.117,0.233-0.74,0.351-0.779s0.35-0.662,0.623-0.818c0.272-0.155,1.207-0.584,1.207-0.584s0.194-0.584,0.194-0.739   s0.858-1.127,0.936-1.147c0.077-0.021,0.81-0.138,0.969-0.332c0.159-0.195,0.315-0.623,0.511-0.779   c0.194-0.156,0.45-0.272,0.77-0.312c0.32-0.039,1.139-0.267,1.139-0.267s-0.037-0.317-0.291-0.473c-0.255-0.156-0.214-0.78,0-0.916   c0.213-0.136,0.641-0.253,0.797-0.175c0.155,0.077,0.611,0.429,0.578,0.662s0.123,0.351,0.434,0.429   c0.313,0.077,0.623-0.039,0.623-0.156s-0.039-0.663-0.155-0.76c-0.116-0.098-0.39-0.525-0.312-0.643   c0.078-0.116,0.428-0.039,0.312-0.662s-0.233-1.285-0.233-1.285s0.117-1.362-0.273-1.246c-0.389,0.117-0.35,0.156-0.739,0.428   c-0.39,0.273-0.351,0.74-0.623,0.195c-0.272-0.545-0.407-0.973-0.407-0.973s0.057-0.156-0.255-0.156s-0.366,0.195-0.593,0.234   c-0.225,0.039-0.231,0.05-0.578,0.531c-0.348,0.481-0.559,1.338-0.784,1.416c-0.226,0.078-0.729,0.351-0.887,0.507   c-0.156,0.155-1.013-0.39-1.402-0.468c-0.39-0.077-1.363-1.09-1.169-1.246c0.195-0.156,0.273-0.701,0.857-0.896   s1.493-0.623,1.564-0.623c0.07,0,1.036-0.312,1.036-0.312s-0.477-0.312-0.409-0.545c0.066-0.234,0.409-0.779,0.409-0.779   s0.039-0.352,0.082-0.429c0.016-0.028,0.241-0.073,0.478-0.149c-0.007,0.056-0.01,0.114-0.01,0.149   c0,0.075,0.026,0.101,0.053,0.153c0.025,0.052-0.026,0.078,0.104,0.169c0.129,0.091-0.014,0.428-0.156,0.519   s-0.013-0.013-0.143,0.091s-0.272,0.167-0.233,0.278c0.038,0.111,0.052,0.098,0.13,0.202s0,0.312-0.053,0.363   c-0.052,0.052-0.131,0.039-0.169,0.13s-0.181,0.169-0.181,0.247c0,0.078,0.115,0.195,0.181,0.182   c0.065-0.013,0.091-0.233,0.247-0.194c0.156,0.039,0.247,0.064,0.312,0.104c0.065,0.039,0.296,0.091,0.245-0.039   c-0.051-0.129-0.115-0.415-0.102-0.454c0.013-0.039-0.055-0.169,0.109-0.26c0.162-0.091,0.176-0.052,0.332-0.168   c0.155-0.117,0.271-0.22,0.298-0.298c0.026-0.078,0.123-0.364,0.165-0.377c0.043-0.013-0.035-0.052,0.186-0.182   s0.285-0.182,0.402-0.143s0.441,0.078,0.545,0.208c0.104,0.13,0.286,0.312,0.247,0.416c-0.039,0.104-0.065,0.182-0.194,0.337   c-0.131,0.156-0.468,0.363-0.844,0.493c-0.377,0.13-0.39,0.091-0.468,0.169c-0.078,0.078,0.402,0.272,0.52,0.298   c0.116,0.026,0.324-0.05,0.44,0.092c0.117,0.142,0.325,0.35,0.455,0.389s0.488,0.117,0.607,0.169   c0.119,0.052,0.236-0.338,0.223-0.39c-0.012-0.052-0.09-0.26,0.065-0.221s0.117,0.091,0.272,0.065   c0.156-0.026,0.117-0.87,0.169-0.883c0.052-0.013,1.052-0.026,1.052-0.026s0.064-0.099,0.064-0.134   c0-0.035-0.117-0.243-0.156-0.269c-0.038-0.026-0.155-0.169-0.182-0.208c-0.025-0.039-0.194-0.247-0.233-0.259   c-0.038-0.013-0.429-0.091-0.429-0.143c0-0.052,0.092-0.336,0.078-0.35c-0.013-0.014,0.014-0.186-0.168-0.229   c-0.182-0.044-0.299-0.083-0.338-0.135s-0.207-0.201-0.207-0.201s-0.019-0.123-0.211-0.188s-0.219-0.166-0.426-0.148   c-0.208,0.018-0.559,0.057-0.648,0.083c-0.092,0.026-0.122,0.026-0.301,0.026c-0.18,0-0.459-0.152-0.521-0.109   c-0.061,0.044-0.126-0.03-0.281,0c-0.057,0.011-0.18,0.086-0.312,0.176c-0.036-0.079-0.118-0.167-0.263-0.266   c-0.238-0.163-0.23,0.021-0.561,0.09c-0.328,0.07-0.397-0.017-0.449,0.104c-0.053,0.121,0.034,0.169,0,0.231   c-0.035,0.063,0.207-0.145-0.035,0.063c-0.242,0.208-0.433,0.387-0.536,0.427c-0.104,0.041-0.3,0.075-0.288,0.179   c0.012,0.104,0.149,0.139,0.08,0.277c-0.068,0.139,0.011,0.19-0.081,0.243c-0.092,0.052,0.41-0.018-0.092,0.138   s-0.45,0.242-0.883,0.225s-0.45-0.104-0.848-0.121c-0.125-0.005-0.211-0.016-0.277-0.03c-0.026-0.121-0.106-0.277,0.012-0.277   s0.248,0,0.313,0.039c0.064,0.039,0.194,0.064,0.221,0.013c0.025-0.052,0.025-0.182,0.116-0.221s0.272-0.039,0.208-0.195   c-0.065-0.156-0.143-0.259-0.143-0.363s0.117-0.402,0.156-0.396c0.038,0.006,0.168-0.227,0.168-0.227s-0.324-0.026-0.48,0.052   c-0.156,0.078-0.363,0.143-0.545,0.175c-0.182,0.033-0.273,0.02-0.402,0c-0.13-0.02-0.182-0.045-0.234-0.071   c-0.052-0.026-0.272-0.308-0.519-0.265c-0.079,0.014-0.144-0.1-0.39-0.139c-0.246-0.038-0.182-0.103-0.441-0.09   c-0.26,0.013-0.182-0.048-0.428,0.073c-0.247,0.121-0.299,0.186-0.352,0.238c-0.052,0.052-0.052,0.208-0.324,0.253   s-0.402-0.006-0.351,0.084s0.091,0.178,0.144,0.251c0.051,0.073,0.298,0.157,0.337,0.154c0.039-0.003,0.351-0.171,0.468-0.21   c0.116-0.039,0.363-0.195,0.428-0.091c0.065,0.104,0.143,0.13,0.053,0.221c-0.092,0.091-0.156,0.156-0.221,0.259   c-0.065,0.104-0.051,0.143-0.071,0.286c-0.017,0.113-0.116,0.137-0.069,0.252c-0.002,0-0.005,0-0.007-0.001   c-0.312-0.052-0.294-0.104-0.536-0.139c-0.243-0.034-0.277-0.086-0.416-0.104c-0.139-0.018,0.086-0.018-0.416-0.104   c-0.501-0.086-0.553-0.19-0.848-0.156c-0.294,0.035-0.484,0-0.588,0.069c-0.121,0.086-1.238,0.186-1.238,0.186   s-0.078-0.194-0.506-0.194c-0.075,0-0.146-0.01-0.214-0.025C32.92,24.706,40.993,20.631,50,20.631   c8.873,0,16.839,3.956,22.23,10.196C72.17,31,72.1,31.073,71.77,30.833c-0.572-0.416-1.195-0.831-1.402-0.467   c-0.207,0.363-0.156,0.675-0.52,0.779s-0.207,0-0.779,0.156c-0.57,0.156-1.037,0.26-1.246,0.363   c-0.207,0.104-0.777,0.208-1.557,0.208s-0.207-0.52-1.246-0.364s-1.35,0.26-1.609,0.104s-0.727-0.519-0.883-0.519   s-0.572,0.052-0.727,0.208c-0.156,0.156-0.313,0-1.143,0.208c-0.832,0.208-0.768,0.156-1.137,0.52   c-0.369,0.363-0.266,0.259-0.422,0.623c-0.156,0.363,0.156,0.415-0.414,0.675c-0.572,0.26-0.883,0.156-1.039,0.571   s-0.26,0.571,0,0.779s0.52,0.208,0.674,0.208c0.156,0,0.572-0.312,0.729-0.363c0.154-0.052,0.57-0.052,0.57,0.208   c0,0.26-0.207,0.52,0,0.779c0.207,0.26,0.363,0.364,0.52,0.208s0.207-0.363,0.311-0.52c0.105-0.156,0.313-0.207,0.469-0.363   c0.154-0.156,0.52-0.416,0.207-0.571c-0.311-0.156-0.57-0.363-0.57-0.363s0.363-0.52,0.518-0.623   c0.156-0.104,0.729-0.363,0.883-0.363c0.156,0,0.156,0,0.156,0s0.313,0.208,0,0.363c-0.311,0.156-0.363-0.363-0.311,0.156   c0.051,0.519,0.311,0.623,0.363,0.883c0.051,0.259-0.209,0.415-0.363,0.675c-0.156,0.26-0.105,0.26-0.209,0.623   s-0.207,0.778-0.207,0.778s-0.207,0.26-0.57,0.26c-0.365,0-0.469-0.052-0.729-0.052s-0.414-0.208-0.623-0.208   c-0.207,0-0.467-0.104-0.467-0.104s0.053-0.52-0.104-0.571s-0.416-0.26-0.416-0.26s-0.104,0.363-0.104,0.52   c0,0.155-0.104,0.415-0.104,0.415s-0.783,0.155-0.781,0.26s0.002,0.312-0.232,0.571c-0.232,0.26,0.234-0.156-0.232,0.26   c-0.467,0.415-1.35,0.675-1.35,0.675s-0.363-0.104-0.416,0.052s0.104,0.52,0.26,0.571s0.104-0.312,0.156,0.052   c0.051,0.363,0,0.312,0.051,0.623c0.053,0.312,0.053,0.312,0.053,0.312s0.188,0.052-0.529,0s-0.094-0.468-0.717-0.052   s-0.313-0.207-0.623,0.416c-0.313,0.623,0,0.986,0,0.986l-0.139,0.311c0,0,0.225,0.156,0,0.313   c-0.225,0.155-0.225,0.155-0.225,0.155s0.311,0.415,0.467,0.415s-0.053-0.311,0.156,0c0.207,0.313,0.311,0.468,0.57,0.468   s0.727,0,0.83-0.155c0.105-0.156,0.105-0.364,0.365-0.468c0.258-0.104,0.57-0.468,0.57-0.468l0.207-0.57   c0,0,0.416-0.52,0.545-0.363c0.131,0.155,0.182,0.207,0.547-0.156c0.363-0.363,0.467-0.571,0.623-0.676   c0.154-0.104,0.154-0.104,0.154-0.104s0.037,0,0.092-0.008l0,0c0.025,0.061,0.051,0.073,0.129,0.15   c0.078,0.078,0.131,0.195,0.209,0.299s0.104,0.065,0.182,0.195c0.078,0.129,0.09,0.104,0.232,0.233s0.287,0.169,0.391,0.247   c0.104,0.077,0.311,0.194,0.375,0.271c0.066,0.078,0.338,0.637,0.326,0.676c-0.014,0.039-0.066,0.13-0.234,0.182   s-0.195-0.052-0.363,0s-0.271-0.1-0.35,0.015c-0.078,0.115,0.025,0.206,0.115,0.258c0.092,0.052,0.143,0.026,0.221,0.091   s0.131,0.104,0.209,0.143c0.076,0.039,0.168-0.013,0.232-0.155c0.064-0.144,0.078-0.26,0.117-0.286   c0.039-0.025,0.039-0.025,0.143-0.09c0.104-0.065,0.117-0.053,0.182-0.131s0.195-0.26,0.17-0.299   c-0.027-0.038-0.143-0.193-0.17-0.232c-0.025-0.039-0.156-0.17,0.027-0.17c0.182,0,0.246,0.039,0.285,0.078s0.207-0.182,0-0.272   c-0.209-0.091-0.324-0.116-0.43-0.182c-0.104-0.065-0.154-0.13-0.271-0.233s-0.092-0.182-0.246-0.246   c-0.156-0.065-0.299-0.078-0.352-0.144c-0.051-0.065-0.143-0.39-0.195-0.441c-0.051-0.052-0.09-0.118-0.154-0.233   c-0.021-0.035-0.041-0.076-0.063-0.115c0.025-0.01,0.051-0.015,0.074-0.015c0.156,0,0.156-0.208,0.416,0.052   s0.311,0.467,0.52,0.623c0.207,0.156,0.674,0.363,0.674,0.363s0.209,0.208,0.209,0.363c0,0.156-0.156,0.313,0.104,0.468   s-0.053-0.208,0.26,0.155c0.311,0.364,0.156,0.468,0.26,0.676c0.104,0.207,0.363,0.363,0.363,0.363l0.57-0.208   c0,0-0.207-0.415-0.207-0.571c0-0.155,0.207-0.415,0.207-0.415l0.469,0.26c0,0-0.053,0.104,0.051,0.26   c0.104,0.155-0.207,0,0.104,0.155c0.313,0.156,0.779,0.208,0.779,0.208s0.207-0.052,0.52,0.052   c0.311,0.104-0.053,0.052,0.311,0.104c0.365,0.053,0.832,0.053,0.936,0.26c0.104,0.208,0.26,0.313,0.104,0.468   s0.207-0.415-0.156,0.155c-0.363,0.571-0.26,0.676-0.414,0.831c-0.156,0.155-0.416,0.415-0.416,0.415s-0.207,0.053-0.52,0.053   c-0.311,0-0.52,0.052-0.674,0.052c-0.156,0-0.52,0.104-0.779,0c-0.26-0.104-0.623-0.312-0.623-0.312s-0.313-0.104-0.572-0.053   c-0.26,0.053-0.26,0.053-0.26,0.053s-0.414,0.155-0.777,0.052c-0.363-0.104-0.623-0.312-0.779-0.363s-0.467-0.104-0.623-0.26   s-0.313-0.728-0.313-0.728s-0.207-0.363-0.363-0.363c-0.154,0-0.467-0.26-0.83,0s-0.26,0.313-0.754,0.416   C56.764,43.086,56.4,43.19,56.4,43.19s-0.209,0-0.623,0c-0.416,0-0.053,0-0.416,0s-0.52-0.26-0.83,0.053   c-0.313,0.311-0.936,0.675-0.986,0.883c-0.053,0.207-0.363,0.363-0.416,0.674c-0.053,0.313,0,0.728,0,0.728   s-0.676,0.468-0.83,0.623c-0.156,0.155-0.313,0.155-0.469,0.468c-0.154,0.311-0.414,0.883-0.414,1.401c0,0.52,0.311,0.415,0,0.987   C51.104,49.577,51,49.836,51,49.993c0,0.155-0.416,0.052,0,0.623c0.416,0.57,0.52,0.57,0.779,0.933   c0.26,0.365,0.52,0.52,0.727,0.779s0.986,0.676,0.986,0.676s0.83-0.416,1.09-0.363c0.26,0.051,0.416,0,0.623,0.051   c0.209,0.053,0.623,0.105,0.936,0.105c0.311,0,0.207-0.209,0.623-0.209s0.727,0.104,1.039,0.313c0.311,0.207,0.986,0.652,0.934,1   c-0.051,0.35-0.311,0.973-0.26,1.492c0.053,0.52,0.209,0.57,0.416,0.883c0.207,0.311,0.363,0.467,0.57,0.777   c0.209,0.313,0.377,1.26,0.623,1.352c0.42,0.154-0.52,0.83-0.52,0.986s-0.104,0.363,0,0.727c0.105,0.363,0.371,0.57,0.238,0.986   s0.281,0.779,0.281,1.039s0,0.363,0,0.805s0.053,0.908,0.313,1.168s0.311,2.025,0.934,1.973c0.623-0.051,1.143-0.26,1.506-0.363   s0.779-0.363,1.143-0.727s0.676-0.52,0.779-0.676c0.104-0.154,0.26-0.363,0.416-0.883c0.154-0.518,0.467-1.348,0.623-1.193   c0.154,0.156,0.518-0.053,0.518-0.727c0-0.676-0.311-0.936,0-1.039c0.313-0.104,0.572-0.311,0.832-0.52   c0.26-0.207,0.727-0.674,0.727-0.83s0.053-0.572,0-1.195s0.098-1.141,0.023-1.297c-0.076-0.156,0.117-1.09,0.021-1.246   c-0.098-0.156-0.098-0.416,0.318-0.727c0.416-0.313,0.623-0.729,0.936-0.988c0.311-0.258,0.83-0.414,0.986-0.83   s0.363-1.193,0.363-1.402c0-0.207,0.26-0.466-0.52-0.414c-0.779,0.051-0.883,0.35-1.299-0.008   c-0.414-0.356-0.883-0.771-0.934-0.927c-0.053-0.156-0.207-0.883-0.676-1.299c-0.467-0.414-0.727-0.57-0.986-1.038   c-0.26-0.467-0.363-0.882-0.467-1.142s-0.363-0.831-0.26-0.986c0.104-0.156,0.57-0.468,0.57-0.468s0.646,0.571,0.869,0.986   s0.689,0.571,0.793,1.143s0.156,0.675,0.26,1.298s0.57,1.09,0.57,1.09s0.156,0.208,0.365,0.313   c0.207,0.104,0.986-0.053,1.141-0.156c0.156-0.104,1.092-0.623,1.195-0.779c0.104-0.155,0.416-0.467,0.57-0.519   c0.156-0.052,0.832-0.415,0.832-0.415s0.363-0.572,0.311-0.728c-0.051-0.155-0.207-0.208-0.467-0.468s-0.363-0.623-0.52-0.674   c-0.156-0.053-2.025-0.623-2.129-0.779s-0.104-0.312-0.104-0.312s1.09,0.259,1.453,0.259s-0.051-0.311,0.363,0   c0.416,0.313,0.832,0.313,0.988,0.313c0.154,0,0.061,0.104,0.42,0.26c0.357,0.155,1.344,0.155,1.604,0.155s0.572-0.052,0.832,0.312   s0.207,0.363,0.52,0.727c0.311,0.363,0.414,0.313,0.623,0.571c0.207,0.26,0.311,0.415,0.414,0.728   c0.104,0.311,0.416,1.35,0.467,1.506c0.053,0.155,0.156,0.519,0.313,1.039c0.156,0.518,0.416,0.777,0.57,0.883   c0.156,0.104,0.52,0.154,0.779-0.053c0.115-0.092,0.232-0.031,0.324-0.002C78.348,67.191,65.57,79.369,50,79.369z"></path></g></svg>