<svg xmlns="http://www.w3.org/2000/svg" xmlns:xlink="http://www.w3.org/1999/xlink" width="100" height="100" viewBox="0 0 100 100"><svg viewBox="0 0 99.999997 99.999997"><g transform="translate(-149.6453,-589.21878)"><path d="m 199.64552,591.21879 a 48.000099,48.000099 0 0 0 -48.00022,48.00022 48.000099,48.000099 0 0 0 48.00022,47.99977 48.000099,48.000099 0 0 0 47.99977,-47.99977 48.000099,48.000099 0 0 0 -47.99977,-48.00022 z m 0,5.42088 a 42.107528,42.578935 0 0 1 42.10718,42.57934 42.107528,42.578935 0 0 1 -42.10718,42.57887 42.107528,42.578935 0 0 1 -42.10763,-42.57887 42.107528,42.578935 0 0 1 42.10763,-42.57934 z" fill="#44CC00"></path></g></svg><g transform="translate(50 50) scale(0.69 0.69) rotate(0) translate(-50 -50)" style="fill:#000000"><svg fill="#000000" xmlns:x="http://ns.adobe.com/Extensibility/1.0/" xmlns:i="http://ns.adobe.com/AdobeIllustrator/10.0/" xmlns:graph="http://ns.adobe.com/Graphs/1.0/" xmlns="http://www.w3.org/2000/svg" xmlns:xlink="http://www.w3.org/1999/xlink" version="1.1" x="0px" y="0px" viewBox="0 0 100 100" style="enable-background:new 0 0 100 100;" xml:space="preserve"><g><g i:extraneous="self"><g><path d="M5273.1,2400.1v-2c0-2.8-5-4-9.7-4s-9.7,1.3-9.7,4v2c0,1.8,0.7,3.6,2,4.9l5,4.9c0.3,0.3,0.4,0.6,0.4,1v6.4     c0,0.4,0.2,0.7,0.6,0.8l2.9,0.9c0.5,0.1,1-0.2,1-0.8v-7.2c0-0.4,0.2-0.7,0.4-1l5.1-5C5272.4,2403.7,5273.1,2401.9,5273.1,2400.1z      M5263.4,2400c-4.8,0-7.4-1.3-7.5-1.8v0c0.1-0.5,2.7-1.8,7.5-1.8c4.8,0,7.3,1.3,7.5,1.8C5270.7,2398.7,5268.2,2400,5263.4,2400z"></path><path d="M5268.4,2410.3c-0.6,0-1,0.4-1,1c0,0.6,0.4,1,1,1h4.3c0.6,0,1-0.4,1-1c0-0.6-0.4-1-1-1H5268.4z"></path><path d="M5272.7,2413.7h-4.3c-0.6,0-1,0.4-1,1c0,0.6,0.4,1,1,1h4.3c0.6,0,1-0.4,1-1C5273.7,2414.1,5273.3,2413.7,5272.7,2413.7z"></path><path d="M5272.7,2417h-4.3c-0.6,0-1,0.4-1,1c0,0.6,0.4,1,1,1h4.3c0.6,0,1-0.4,1-1C5273.7,2417.5,5273.3,2417,5272.7,2417z"></path></g><path d="M80.3,54.2H69.9L59.3,43.2c-2.5-2.6-6.1-4.1-9.7-4.1H35c-5.6,0-10.7,3.5-12.6,8.8L20,54.2h-4.2V32c0-4.1,3.4-7.5,7.5-7.5    h18.4c0.5,2.9,3.1,5.1,6.1,5.1h3.4v0.3c0,1.6,1.3,2.8,2.8,2.8c1.6,0,2.8-1.3,2.8-2.8v-1.8h4.6c1.2,0,2.1-0.9,2.1-2.1    s-0.9-2.1-2.1-2.1h-4.6v-4.3h4.6c1.2,0,2.1-0.9,2.1-2.1s-0.9-2.1-2.1-2.1h-4.6v-1.8c0-1.6-1.3-2.8-2.8-2.8c-1.6,0-2.8,1.3-2.8,2.8    v0.3h-3.4c-3.1,0-5.6,2.2-6.1,5.1H23.2c-7.2,0-13.1,5.9-13.1,13.1v23.1c-4.4,1.7-7.6,6-7.6,11.1v6.8c0,4,3.2,7.2,7.2,7.2h5.1    c1.3,5.3,6,9.2,11.6,9.2c5.6,0,10.4-3.9,11.6-9.2h23.8c1.3,5.3,6,9.2,11.6,9.2c5.6,0,10.4-3.9,11.6-9.2h5.1c4,0,7.2-3.2,7.2-7.2    v-1.5C97.5,61.9,89.8,54.2,80.3,54.2z M49.6,44.7c2.1,0,4.2,0.9,5.6,2.4l6.9,7.2H46.8l-1.9-9.6H49.6z M27.6,49.8    c1.1-3.1,4.1-5.1,7.3-5.1h4.1l1.9,9.6H26L27.6,49.8z M26.5,83.7c-3.5,0-6.4-2.9-6.4-6.4c0-3.5,2.9-6.4,6.4-6.4s6.4,2.9,6.4,6.4    C32.8,80.9,30,83.7,26.5,83.7z M73.5,83.7c-3.5,0-6.4-2.9-6.4-6.4c0-3.5,2.9-6.4,6.4-6.4c3.5,0,6.4,2.9,6.4,6.4    C79.9,80.9,77,83.7,73.5,83.7z M91.9,72.9c0,0.9-0.7,1.6-1.6,1.6h-5.1c-1.3-5.3-6-9.2-11.6-9.2c-5.6,0-10.4,3.9-11.6,9.2H38.1    c-1.3-5.3-6-9.2-11.6-9.2c-5.6,0-10.4,3.9-11.6,9.2H9.7c-0.9,0-1.6-0.7-1.6-1.6v-6.8c0-3.5,2.8-6.3,6.3-6.3h65.9    c6.4,0,11.6,5.2,11.6,11.6V72.9z"></path></g></g></svg></g></svg>