<svg xmlns="http://www.w3.org/2000/svg" xmlns:xlink="http://www.w3.org/1999/xlink" width="100" height="100" viewBox="0 0 100 100"><svg viewBox="0 0 99.999997 99.999997"><g transform="translate(-149.6453,-589.21878)"><path d="m 199.64552,591.21879 a 48.000099,48.000099 0 0 0 -48.00022,48.00022 48.000099,48.000099 0 0 0 48.00022,47.99977 48.000099,48.000099 0 0 0 47.99977,-47.99977 48.000099,48.000099 0 0 0 -47.99977,-48.00022 z m 0,5.42088 a 42.107528,42.578935 0 0 1 42.10718,42.57934 42.107528,42.578935 0 0 1 -42.10718,42.57887 42.107528,42.578935 0 0 1 -42.10763,-42.57887 42.107528,42.578935 0 0 1 42.10763,-42.57934 z" fill="#CC0000"></path></g></svg><g transform="translate(50 50) scale(0.69 0.69) rotate(0) translate(-50 -50)" style="fill:#000000"><svg fill="#000000" xmlns="http://www.w3.org/2000/svg" xmlns:xlink="http://www.w3.org/1999/xlink" version="1.1" x="0px" y="0px" viewBox="0 0 50 50" style="enable-background:new 0 0 50 50;" xml:space="preserve"><path d="M41.6,19.3c-3,0-6.1,0.1-9.1,0.1L19.5,1h-6.8l8.7,18.8c-3.6,0.2-7.2,0.4-10.8,0.6L5.3,11H1.7l3.5,9.9  c-1.8,0.1-3.2,1.9-3.2,4.1c0,2.3,1.4,4.1,3.2,4.1L1.7,39h3.6l5.4-9.5c3.6,0.2,7.2,0.5,10.7,0.6L12.8,49h6.8l12.9-18.4  c3,0.1,6.1,0.1,9.1,0.1c3.7,0,6.8-2.7,6.8-5.7c0,0,0,0,0,0C48.3,21.9,45.3,19.3,41.6,19.3z"></path></svg></g></svg>