<svg xmlns="http://www.w3.org/2000/svg" xmlns:xlink="http://www.w3.org/1999/xlink" width="100" height="100" viewBox="0 0 100 100"><svg viewBox="0 0 99.999997 99.999997"><g transform="translate(-149.6453,-589.21878)"><path d="m 199.64552,591.21879 a 48.000099,48.000099 0 0 0 -48.00022,48.00022 48.000099,48.000099 0 0 0 48.00022,47.99977 48.000099,48.000099 0 0 0 47.99977,-47.99977 48.000099,48.000099 0 0 0 -47.99977,-48.00022 z m 0,5.42088 a 42.107528,42.578935 0 0 1 42.10718,42.57934 42.107528,42.578935 0 0 1 -42.10718,42.57887 42.107528,42.578935 0 0 1 -42.10763,-42.57887 42.107528,42.578935 0 0 1 42.10763,-42.57934 z" fill="#CC0000"></path></g></svg><g transform="translate(50 50) scale(0.69 0.69) rotate(0) translate(-50 -50)" style="fill:#000000"><svg fill="#000000" xmlns="http://www.w3.org/2000/svg" data-name="Layer 1" viewBox="0 0 48 48" x="0px" y="0px"><title>cooking solid icons</title><path d="M12.56,9c2.87,2.85,4.74,8.38,4.74,15s-1.86,12.16-4.73,15a65.26,65.26,0,0,0,8.52-2.22c8.81-3,13.46-7.44,13.46-12.79C34.55,14.42,20.16,10.42,12.56,9Z"></path><path d="M8,20.54C7.68,20.68,7,21.88,7,24s.66,3.32.94,3.46c.28-.14,1-1.34,1-3.46S8.24,20.68,8,20.54Z"></path><path d="M8,8.27C3.5,8.27,0,15.18,0,24S3.5,39.73,8,39.73s8-6.91,8-15.73S12.43,8.27,8,8.27ZM8,29.18C6.21,29.18,5.3,26.57,5.3,24S6.21,18.82,8,18.82s2.66,2.61,2.66,5.18S9.71,29.18,8,29.18Z"></path><path d="M48,21.45a4,4,0,0,0-3.79-4.19,3.8,3.8,0,0,0-3.41,2.37H35a10.14,10.14,0,0,1,1,4.37,10.28,10.28,0,0,1-1,4.37H40.8a3.78,3.78,0,0,0,3.41,2.37A4,4,0,0,0,48,26.55,4.52,4.52,0,0,0,47.22,24,4.49,4.49,0,0,0,48,21.45Z"></path></svg></g></svg>