<svg xmlns="http://www.w3.org/2000/svg" xmlns:xlink="http://www.w3.org/1999/xlink" width="100" height="100" viewBox="0 0 100 100"><circle stroke="none" fill="#f38f19" r="48%" cx="50%" cy="50%"></circle><g transform="translate(50 50) scale(0.69 0.69) rotate(0) translate(-50 -50)" style="fill:#000000"><svg fill="#000000" xmlns="http://www.w3.org/2000/svg" xmlns:xlink="http://www.w3.org/1999/xlink" version="1.1" x="0px" y="0px" viewBox="0 0 100 100" style="enable-background:new 0 0 100 100;" xml:space="preserve"><g><path d="M41.5,41.4c0.1,0.1,0,0.3-0.1,0.5l-2.3,1.2c-0.1,0-0.2,0.2-0.2,0.4l0.3,1.1c0.1,0.2,0.2,0.3,0.4,0.3l10.4-0.2   c1,0,2-0.1,3.1-0.3c1.8-0.2,4.9-0.8,5.4-0.9c0.6-0.2,2.8-0.8,2.9-0.8c0.1,0,0.3,0.2,0.4,0.2c0.1,0,3.2-0.9,3.3-0.9   c0.1,0,0.1-0.2,0.1-0.2c0-0.1,0-0.1,0.1-0.1l7.6-2c0.1,0,0.1,0,0.2,0.1c0.3,0.2,0.9,0.8,1.4,0.6l3.7-1c0.5-0.1,0.9-0.4,1.1-0.9   c0.1-0.2,0.1-0.4,0.1-0.6c0-0.1,0.1-0.2,0.2-0.3l7-2.2c1.1-0.3,2.2-0.8,3.2-1.3c1.3-0.7,2.9-1.7,2.5-2.4c-0.1-0.4-0.6-0.8-0.9-1   c-1.1-0.7-4.1-3.1-10.3-1.4c-6.2,1.6-28.5,9.1-29.5,9.4c-1,0.3-1.4,0.6-4-1.1l-6.6-4.1c0,0-0.8-0.7-1.7-0.4l-2.5,0.7   c-0.2,0.1-0.3,0.3-0.2,0.4L41.5,41.4z"></path><path d="M90.5,58h-8.7L81,56.4c-0.7-1.3-2.1-2.2-3.7-2.2h-5.6c-1.5,0-2.9,0.8-3.7,2.2L67.3,58h-4.9l-0.9-1.6   c-0.7-1.3-2.1-2.2-3.7-2.2h-5.6c-1.5,0-2.9,0.8-3.7,2.2L47.8,58H39c-4.3,0-7.8,3.5-7.8,7.8v9.1h-8.1c-0.6-11.1-1.7-30.2-2-36.4h4.9   c0.5,0,0.8-0.4,0.8-0.8c0-0.5-0.4-0.8-0.8-0.8h-0.4l2.2-11.1h0.5c0.5,0,0.8-0.4,0.8-0.8c0-0.5-0.4-0.8-0.8-0.8H16.3v-6.1   c0-0.5-0.4-0.8-0.8-0.8s-0.8,0.4-0.8,0.8V24H2.5c-0.5,0-0.8,0.4-0.8,0.8c0,0.5,0.4,0.8,0.8,0.8H3l2.2,11.1H4.8   c-0.5,0-0.8,0.4-0.8,0.8c0,0.5,0.4,0.8,0.8,0.8h4.9L7.4,80.1C7.4,81.7,8.4,83,9.9,83c1.3,0,29,0,29,0c0,0,0.1,0,0.1,0h51.5   c4.3,0,7.8-3.5,7.8-7.8v-9.4C98.3,61.5,94.8,58,90.5,58z M7.3,34.3L6,27.5h3.4l0.6,6.8H7.3z M14.6,34.3h-3L11,27.5h3.6V34.3z    M19.4,34.3h-3.1v-6.8H20L19.4,34.3z M21.7,27.5h3.2l-1.3,6.8h-2.5L21.7,27.5z M52.6,76c0,0.9-0.7,1.6-1.6,1.6h-8.8   c-0.9,0-1.6-0.7-1.6-1.6v-2.3c0-0.9,0.7-1.6,1.6-1.6H51c0.9,0,1.6,0.7,1.6,1.6V76z M52.6,67.3c0,0.9-0.7,1.6-1.6,1.6h-8.8   c-0.9,0-1.6-0.7-1.6-1.6V65c0-0.9,0.7-1.6,1.6-1.6H51c0.9,0,1.6,0.7,1.6,1.6V67.3z M70.8,76c0,0.9-0.7,1.6-1.6,1.6h-8.8   c-0.9,0-1.6-0.7-1.6-1.6v-2.3c0-0.9,0.7-1.6,1.6-1.6h8.8c0.9,0,1.6,0.7,1.6,1.6V76z M70.8,67.3c0,0.9-0.7,1.6-1.6,1.6h-8.8   c-0.9,0-1.6-0.7-1.6-1.6V65c0-0.9,0.7-1.6,1.6-1.6h8.8c0.9,0,1.6,0.7,1.6,1.6V67.3z M89,76c0,0.9-0.7,1.6-1.6,1.6h-8.8   c-0.9,0-1.6-0.7-1.6-1.6v-2.3c0-0.9,0.7-1.6,1.6-1.6h8.8c0.9,0,1.6,0.7,1.6,1.6V76z M89,67.3c0,0.9-0.7,1.6-1.6,1.6h-8.8   c-0.9,0-1.6-0.7-1.6-1.6V65c0-0.9,0.7-1.6,1.6-1.6h8.8c0.9,0,1.6,0.7,1.6,1.6V67.3z"></path></g></svg></g></svg>