<svg xmlns="http://www.w3.org/2000/svg" xmlns:xlink="http://www.w3.org/1999/xlink" width="100" height="100" viewBox="0 0 100 100"><svg viewBox="0 0 99.999997 99.999997"><g transform="translate(-149.6453,-589.21878)"><path d="m 199.64552,591.21879 a 48.000099,48.000099 0 0 0 -48.00022,48.00022 48.000099,48.000099 0 0 0 48.00022,47.99977 48.000099,48.000099 0 0 0 47.99977,-47.99977 48.000099,48.000099 0 0 0 -47.99977,-48.00022 z m 0,5.42088 a 42.107528,42.578935 0 0 1 42.10718,42.57934 42.107528,42.578935 0 0 1 -42.10718,42.57887 42.107528,42.578935 0 0 1 -42.10763,-42.57887 42.107528,42.578935 0 0 1 42.10763,-42.57934 z" fill="#44CC00"></path></g></svg><g transform="translate(50 50) scale(0.69 0.69) rotate(0) translate(-50 -50)" style="fill:#000000"><svg fill="#000000" xmlns:x="http://ns.adobe.com/Extensibility/1.0/" xmlns:i="http://ns.adobe.com/AdobeIllustrator/10.0/" xmlns:graph="http://ns.adobe.com/Graphs/1.0/" xmlns="http://www.w3.org/2000/svg" xmlns:xlink="http://www.w3.org/1999/xlink" version="1.1" x="0px" y="0px" viewBox="0 0 100 100" style="enable-background:new 0 0 100 100;" xml:space="preserve"><g><g i:extraneous="self"><g><path d="M31.1,73.7l-1.2-1.3L16.1,84.5c-3.2,2.8-3.3,7.7-0.3,10.7l0.1,0.1c3,3,7.9,2.8,10.7-0.3l17.3-19.5     c-1.6,1-3.4,1.5-5.3,1.5C35.7,77,33,75.8,31.1,73.7z"></path><path d="M82.4,42.1c-1-1-2.6-1-3.7,0L64.9,56c-0.5,0.5-1.4,0.5-1.9,0l-1.1-1.1c-0.5-0.5-0.5-1.4,0-1.9l13.9-13.9c1-1,1-2.6,0-3.7     c-1-1-2.7-1-3.7,0L58.2,49.3c-0.5,0.5-1.4,0.5-1.9,0l-1.1-1.1c-0.5-0.5-0.5-1.4,0-1.9l13.9-13.9c1-1,1-2.7,0-3.7     c-1-1-2.7-1-3.7,0L49.2,45c-2.4,2.4-2.4,6.2,0,8.6l8.4,8.4c1.2,1.2,2.7,1.8,4.3,1.8s3.1-0.6,4.3-1.8l16.2-16.2     C83.4,44.8,83.4,43.1,82.4,42.1z"></path><path d="M19.1,29c-1.3-1.3-3.5-0.8-4.2,0.9C11.5,38.8,13.4,49,20,56.1l13.9,15c2.5,2.6,6.6,2.7,9.2,0.2l1.8-1.8l18,24.6     c2.7,3.8,8.2,4.2,11.5,0.9c3-3,3-7.8,0-10.7L19.1,29z"></path><path d="M38,36.8c0.4,0.2,0.7,0.2,1.1,0.2c1.1,0,2.1-0.6,2.6-1.7c1.1-2.5,2.4-4.7,3.8-6.6c3.1,1,6.5,1,9-0.7     c5.4-3.7,6.4-16.5,6-24c-0.1-1.3-1.7-2-2.6-1c-7.8,7.9-19.9,7.7-20.7,16.1C37,20.4,37.3,21.8,38,23c5.3-4.5,10.6-6.3,12.3-6.8     c-4,2.9-10.1,8.3-13.8,17C35.9,34.6,36.6,36.2,38,36.8z"></path></g></g></g></svg></g></svg>