<svg height='100px' width='100px'  fill="#000000" xmlns:dc="http://purl.org/dc/elements/1.1/" xmlns:cc="http://creativecommons.org/ns#" xmlns:rdf="http://www.w3.org/1999/02/22-rdf-syntax-ns#" xmlns:svg="http://www.w3.org/2000/svg" xmlns="http://www.w3.org/2000/svg" xmlns:xlink="http://www.w3.org/1999/xlink" xmlns:sodipodi="http://sodipodi.sourceforge.net/DTD/sodipodi-0.dtd" xmlns:inkscape="http://www.inkscape.org/namespaces/inkscape" version="1.1" x="0px" y="0px" viewBox="0 0 100 100" enable-background="new 0 0 100 100" xml:space="preserve"><g style="" display="inline"><path clip-rule="evenodd" d="M 0,7.440678 0,100 l 100.37321,0 -0.449434,-92.559322 -13.9324,-0.025424 0,6.668276 -11.984861,0 0,-6.668276 -47.991903,0 0,6.668276 -11.984861,0 0,-6.668276 z m 22.022182,32.601695 -16.1795624,0 0,-16.101695 16.1795624,0 z m 18.161893,0.05339 -16.179562,0 0,-16.101695 16.179562,0 z m 17.988403,-0.01619 -16.179562,0 0,-16.101695 16.179562,0 z m 18.075148,0.05791 -16.179562,0 0,-16.1017 16.179562,0 z m 18.100345,-0.0591 -16.179562,0 0,-16.10169 16.179562,0 z m -72.267847,18.030226 -16.1795601,0 0,-16.1017 16.1795601,0 z m 18.075146,-0.04409 -16.17956,0 0,-16.10169 16.17956,0 z m 17.984737,0.0025 -16.17957,0 0,-16.1017 16.17957,0 z m 18.134538,0.0399 -16.17956,0 0,-16.10169 16.17956,0 z m -54.052725,18.152268 -16.17956,0 0,-16.1017 16.17956,0 z m 17.984727,-0.05002 -16.17956,0 0,-16.10169 16.17956,0 z m 17.947275,0.0025 -16.17956,0 0,-16.1017 16.17956,0 z m 18.134548,0.0024 -16.17957,0 0,-16.10169 16.17957,0 z m 18.02218,-18.162362 -16.17956,0 0,-16.1017 16.17956,0 z m -0.01527,18.189711 -16.17956,0 0,-16.10169 16.17956,0 z m -72.239989,17.852646 -16.1795595,0 0,-16.1017 16.1795595,0 z m 18.134539,-0.01256 -16.17956,0 0,-16.10169 16.17956,0 z m 17.984737,0.03991 -16.17957,0 0,-16.1017 16.17957,0 z m 18.134538,0.0024 -16.17956,0 0,-16.10169 16.17956,0 z m 17.984727,-0.05 -16.17956,0 0,-16.1017 16.17956,0 z" style="" fill-rule="evenodd"></path></g><g style="" display="none"><path style="" d="m 17.97729,53.161692 65.017868,0 0,15.580318 -65.017868,0 z" fill="#000000"></path></g><g style="" display="inline"><path d="m 44.06976,44.035218 12.44248,0 0,11.675892 -12.44248,0 z" style="" fill="#000000" display="inline"></path><path d="m 76.032997,-0.0964194 8.010839,0.07490538 0,12.00769302 -7.93997,0 z" style="" fill="#000000" display="inline"></path><path d="m 15.978248,-0.0116741 8.062911,0 0.02591,11.9978531 -8.089781,0 z" style="" fill="#000000" display="inline"></path></g></svg>