<svg xmlns="http://www.w3.org/2000/svg" xmlns:xlink="http://www.w3.org/1999/xlink" width="100" height="100" viewBox="0 0 100 100"><circle stroke="none" fill="#0059B3" r="48%" cx="50%" cy="50%"></circle><g transform="translate(50 50) scale(0.69 0.69) rotate(0) translate(-50 -50)" style="fill:#FFFFFF"><svg fill="#FFFFFF" xmlns="http://www.w3.org/2000/svg" xmlns:xlink="http://www.w3.org/1999/xlink" version="1.1" x="0px" y="0px" viewBox="0 0 64 64" style="enable-background:new 0 0 64 64;" xml:space="preserve"><path d="M57,30c2.757,0,5-2.243,5-5c0-1.569-0.752-3.04-2-3.979c0-0.007,0-0.014,0-0.021c0-3.309-2.691-6-6-6s-6,2.691-6,6  c0,0.008,0,0.015,0,0.021c-0.385,0.29-0.717,0.635-1,1.014c-0.283-0.379-0.615-0.724-1-1.014c0-0.007,0-0.014,0-0.021  c0-3.309-2.691-6-6-6s-6,2.691-6,6c0,0.008,0,0.015,0,0.021c-1.248,0.938-2,2.409-2,3.979c0,2.757,2.243,5,5,5h2v3h-3  c-0.446,0-0.839,0.296-0.961,0.726L33.246,40H26v-3c2.757,0,5-2.243,5-5v-1c0-0.553-0.448-1-1-1h-1c-1.641,0-3.088,0.806-4,2.031  C24.088,30.806,22.641,30,21,30h-1c-0.552,0-1,0.447-1,1v1c0,2.757,2.243,5,5,5v3h-5c-0.315,0-0.611,0.148-0.8,0.4L15.5,44H14v-5h1  c0.404,0,0.769-0.243,0.924-0.617s0.069-0.804-0.217-1.09l-6-6c-0.391-0.391-1.023-0.391-1.414,0l-6,6  c-0.286,0.286-0.372,0.716-0.217,1.09S2.596,39,3,39h1v5H2v2h14c0.315,0,0.611-0.148,0.8-0.4l2.7-3.6H34  c0.446,0,0.839-0.296,0.961-0.726L36.754,35H62v-2h-7v-3H57z M29,32c0,1.654-1.346,3-3,3C26,33.346,27.346,32,29,32z M12,44H6v-5h6  V44z M5.414,37L9,33.414L12.586,37H5.414z M21,32c1.654,0,3,1.346,3,3C22.346,35,21,33.654,21,32z M39,24.131l-1.445-0.963  l-1.109,1.664L39,26.535V28h-2c-1.654,0-3-1.346-3-3c0-1.07,0.591-2.067,1.542-2.602c0.35-0.196,0.548-0.582,0.505-0.979  l-0.024-0.189C36.013,21.153,36,21.078,36,21c0-2.206,1.794-4,4-4s4,1.794,4,4c0,0.078-0.013,0.153-0.023,0.229l-0.024,0.189  c-0.043,0.397,0.155,0.783,0.505,0.979C45.409,22.933,46,23.93,46,25c0,1.654-1.346,3-3,3h-2v-1.465l2.555-1.703l-1.109-1.664  L41,24.131V22h-2V24.131z M53,33H41v-3h2c1.641,0,3.088-0.806,4-2.031C47.912,29.194,49.359,30,51,30h2V33z M53,22v2.131  l-1.445-0.963l-1.109,1.664L53,26.535V28h-2c-1.654,0-3-1.346-3-3c0-1.07,0.591-2.067,1.542-2.602  c0.35-0.196,0.548-0.582,0.505-0.979l-0.024-0.189C50.013,21.153,50,21.078,50,21c0-2.206,1.794-4,4-4s4,1.794,4,4  c0,0.078-0.013,0.153-0.023,0.229l-0.024,0.189c-0.043,0.397,0.155,0.783,0.505,0.979C59.409,22.933,60,23.93,60,25  c0,1.654-1.346,3-3,3h-2v-1.465l2.555-1.703l-1.109-1.664L55,24.131V22H53z"></path><path d="M6,11c0,2.757,2.243,5,5,5s5-2.243,5-5s-2.243-5-5-5S6,8.243,6,11z M11,8c1.654,0,3,1.346,3,3s-1.346,3-3,3s-3-1.346-3-3  S9.346,8,11,8z"></path><rect x="10" y="2" width="2" height="2"></rect><rect x="10" y="18" width="2" height="2"></rect><rect x="18" y="10" width="2" height="2"></rect><rect x="2" y="10" width="2" height="2"></rect><rect x="15.657" y="4.343" transform="matrix(0.7071 -0.7071 0.7071 0.7071 1.1007 13.343)" width="2" height="2"></rect><rect x="4.343" y="15.657" transform="matrix(0.7071 -0.7071 0.7071 0.7071 -10.2134 8.657)" width="2" height="2"></rect><rect x="15.657" y="15.657" transform="matrix(0.7071 -0.7071 0.7071 0.7071 -6.8998 16.6569)" width="2" height="2"></rect><rect x="4.343" y="4.343" transform="matrix(0.7071 -0.7071 0.7071 0.7071 -2.2129 5.3431)" width="2" height="2"></rect><rect x="15" y="48" width="2" height="2"></rect><rect x="15" y="52" width="2" height="2"></rect><rect x="15" y="56" width="2" height="2"></rect><rect x="33" y="44" width="2" height="2"></rect><rect x="33" y="48" width="2" height="2"></rect><rect x="33" y="52" width="2" height="2"></rect><rect x="33" y="56" width="2" height="2"></rect><rect x="2" y="60" width="60" height="2"></rect></svg></g></svg>