<svg xmlns="http://www.w3.org/2000/svg" xmlns:xlink="http://www.w3.org/1999/xlink" width="100" height="100" viewBox="0 0 100 100"><circle stroke="none" fill="#0059B3" r="48%" cx="50%" cy="50%"></circle><g transform="translate(50 50) scale(0.69 0.69) rotate(0) translate(-50 -50)" style="fill:#FFFFFF"><svg fill="#FFFFFF" xmlns="http://www.w3.org/2000/svg" xmlns:xlink="http://www.w3.org/1999/xlink" version="1.1" x="0px" y="0px" viewBox="0 0 100 100" enable-background="new 0 0 100 100" xml:space="preserve"><g display="none"><g display="inline"><path fill="#FFFFFF" d="M84.217,20.603l-4.485,4.485c5.575,6.724,8.937,15.345,8.937,24.742c0,3.441-0.561,6.881-1.299,10.086    c-1.697,7.366-7.36,15.284-11.661,19.121c-6.544,5.838-15.948,9.563-25.883,9.563c-9.3,0-17.837-3.055-24.531-9.075l-4.696,4.696    C28.484,90.933,38.685,95,49.826,95c24.907,0,45.171-20.263,45.171-45.171C94.997,38.688,90.929,28.487,84.217,20.603z"></path></g></g><g><g><path fill="none" d="M72.299,22.368"></path><path fill="none" d="M74.341,20.326"></path><path fill="#FFFFFF" d="M69.194,22.368c0.008-0.076,0.023-0.149,0.023-0.227c0-1.185-0.969-2.154-2.154-2.154h-1.814    c-1.185,0-2.154,0.969-2.154,2.154c0,0.078,0.015,0.151,0.023,0.227l-4.498,0.253c-2.254,0-2.214,0.762-2.214,2.015    s4.258,6.589,6.512,6.589c0.709,0,0.038-2.323,0.583-2.558c0.083,0.014,2.215-0.109,2.3-0.095l6.499-6.203H69.194z"></path><path fill="#FFFFFF" d="M28.173,46.579h-2.161c-1.202,0-2.206,0.798-2.544,1.889c-0.686-0.551-4.245-3.465-4.732-4.975    c-0.038-0.119,0.845-2.545,1.868-3.452c0,0,2.185,0.184,2.977,0c0.546-0.127,4.593-2.367,6.369-5.24    c0.54-0.874,3.062-6.473,3.477-7.413c0.302-0.685-0.587-2.663-1.518-2.225c-0.666,0.314-1.73,2.178-2.403,2.476    c-0.842,0.372-2.686,0.558-3.458,0.057c-3.275-2.127,0.823-3.486,2.844-2.419c0.896,0.474,3.01-4.284,1.811-4.284    c-1.644,0-6.575,0-6.575,0c6.877-5.442,15.948-9.563,25.883-9.563c9.207,0,17.666,2.994,24.33,8.895l4.692-4.692    C71.177,9.026,61.056,5.03,50.011,5.03c-24.907,0-45.171,20.263-45.171,45.171c0,11.044,3.996,21.166,10.604,29.021l4.485-4.485    c-5.472-6.694-8.761-15.237-8.761-24.536c0-3.441,0.455-6.907,1.299-10.086c0.178,0.034,0.359-0.073,0.546-0.073h0.535v3.078    c0.746,1.293,1.058,1.282,2.506,2.38c0.177,0.134,5.705,4.875,5.705,4.875c0.069,0.069,0.17,0.122,0.288,0.166    c-0.577,0.8-1.13,1.986-1.13,3.611c0,4.762,3.75,11.567,5.405,11.567l0.368,2.256l12.326-12.326l-7.135-7.521    C30.903,47.137,29.567,46.579,28.173,46.579z"></path></g><g><path fill="none" d="M23.461,77.662c0.77,0.83,1.287,1.374,1.287,1.374c0.179,0.168,0.365,0.325,0.547,0.488l1.862-1.862H23.461z"></path></g></g><g display="none"><g display="inline" opacity="0.25"><path d="M84.191,20.629L20.649,84.171c17.711,15.178,44.398,14.395,61.168-2.374C98.586,65.027,99.369,38.34,84.191,20.629z"></path></g></g><g><g><path fill="none" d="M23.461,77.662c0.77,0.83,1.287,1.374,1.287,1.374c0.179,0.168,0.365,0.325,0.547,0.488l1.862-1.862H23.461z"></path></g><g><path d="M78.376,25.606L25.415,78.567c14.762,12.651,37.005,11.998,50.983-1.979C90.374,62.611,91.027,40.368,78.376,25.606z"></path></g><path d="M21.368,82.651c1.668-1.954,3.843-2.835,4.858-1.968c1.015,0.867,0.486,3.153-1.182,5.106s-4.858,1.968-4.858,1.968   S19.701,84.605,21.368,82.651z"></path><path d="M25.834,87.503c1.183-2.28,3.102-3.63,4.287-3.015c1.185,0.615,1.186,2.961,0.003,5.241   c-1.183,2.28-4.287,3.015-4.287,3.015S24.651,89.783,25.834,87.503z"></path><path d="M31.946,90.872c0.797-2.442,2.472-4.086,3.74-3.672c1.269,0.414,1.651,2.729,0.854,5.171   c-0.797,2.442-3.74,3.672-3.74,3.672S31.149,93.314,31.946,90.872z"></path><path d="M38.57,92.817c0.363-2.543,1.729-4.451,3.05-4.262c1.321,0.189,2.098,2.403,1.735,4.946s-3.05,4.262-3.05,4.262   S38.207,95.359,38.57,92.817z"></path><path d="M45.102,93.846c0.066-2.568,1.201-4.622,2.535-4.587c1.334,0.034,2.362,2.144,2.297,4.711   c-0.066,2.568-2.535,4.587-2.535,4.587S45.036,96.414,45.102,93.846z"></path><path d="M80.224,82.456c-1.668-1.954-3.843-2.835-4.858-1.968s-0.486,3.153,1.182,5.106s4.858,1.968,4.858,1.968   S81.891,84.41,80.224,82.456z"></path><path d="M75.758,87.308c-1.183-2.28-3.102-3.63-4.287-3.015c-1.185,0.615-1.186,2.961-0.003,5.241   c1.183,2.28,4.287,3.015,4.287,3.015S76.941,89.588,75.758,87.308z"></path><path d="M69.646,90.677c-0.797-2.442-2.472-4.086-3.74-3.672c-1.269,0.414-1.651,2.729-0.854,5.171   c0.797,2.442,3.74,3.672,3.74,3.672S70.443,93.119,69.646,90.677z"></path><path d="M63.022,92.622c-0.363-2.543-1.729-4.451-3.05-4.262c-1.321,0.189-2.098,2.403-1.735,4.946   c0.363,2.543,3.05,4.262,3.05,4.262S63.386,95.164,63.022,92.622z"></path><path d="M56.49,93.651c-0.066-2.568-1.201-4.622-2.535-4.587c-1.334,0.034-2.362,2.144-2.297,4.711   c0.066,2.568,2.535,4.587,2.535,4.587S56.556,96.219,56.49,93.651z"></path><path d="M81.524,81.139c-1.919-1.708-2.755-3.9-1.868-4.897c0.887-0.997,3.162-0.421,5.081,1.287s1.868,4.897,1.868,4.897   S83.443,82.847,81.524,81.139z"></path><path d="M86.466,76.775c-2.255-1.23-3.565-3.176-2.927-4.348c0.639-1.172,2.985-1.125,5.24,0.104s2.927,4.348,2.927,4.348   S88.721,78.004,86.466,76.775z"></path><path d="M89.96,70.733c-2.425-0.847-4.034-2.555-3.594-3.815c0.44-1.26,2.763-1.595,5.188-0.748   c2.425,0.847,3.594,3.815,3.594,3.815S92.385,71.58,89.96,70.733z"></path><path d="M92.041,64.151c-2.535-0.416-4.414-1.82-4.199-3.137s2.446-2.048,4.981-1.632c2.535,0.416,4.199,3.137,4.199,3.137   S94.576,64.566,92.041,64.151z"></path><path d="M93.205,57.641c-2.566-0.119-4.596-1.296-4.534-2.629c0.062-1.333,2.192-2.318,4.758-2.199s4.534,2.629,4.534,2.629   S95.771,57.76,93.205,57.641z"></path><path d="M82.686,21.492c-1.987,1.627-2.913,3.783-2.068,4.816c0.845,1.033,3.142,0.551,5.13-1.076   c1.987-1.627,2.068-4.816,2.068-4.816S84.674,19.865,82.686,21.492z"></path><path d="M87.669,26.083c-2.304,1.136-3.693,3.027-3.103,4.224c0.59,1.197,2.936,1.247,5.24,0.111   c2.304-1.136,3.103-4.224,3.103-4.224S89.973,24.947,87.669,26.083z"></path><path d="M90.542,33.037c-2.458,0.746-4.136,2.387-3.748,3.664s2.695,1.707,5.152,0.961c2.458-0.746,3.748-3.664,3.748-3.664   S92.999,32.291,90.542,33.037z"></path><path d="M92.35,39.7c-2.55,0.311-4.486,1.637-4.324,2.962c0.162,1.325,2.359,2.147,4.909,1.836c2.55-0.311,4.324-2.962,4.324-2.962   S94.899,39.389,92.35,39.7z"></path><path d="M93.245,46.252c-2.569,0.013-4.645,1.105-4.639,2.44c0.007,1.335,2.094,2.406,4.663,2.393s4.639-2.44,4.639-2.44   S95.813,46.239,93.245,46.252z"></path></g></svg></g></svg>