<svg xmlns="http://www.w3.org/2000/svg" xmlns:xlink="http://www.w3.org/1999/xlink" width="100" height="100" viewBox="0 0 100 100"><circle stroke="none" fill="#0059B3" r="48%" cx="50%" cy="50%"></circle><g transform="translate(50 50) scale(0.69 0.69) rotate(0) translate(-50 -50)" style="fill:#FFFFFF"><svg fill="#FFFFFF" xmlns:x="http://ns.adobe.com/Extensibility/1.0/" xmlns:i="http://ns.adobe.com/AdobeIllustrator/10.0/" xmlns:graph="http://ns.adobe.com/Graphs/1.0/" xmlns="http://www.w3.org/2000/svg" xmlns:xlink="http://www.w3.org/1999/xlink" version="1.1" x="0px" y="0px" viewBox="0 0 100 100" style="enable-background:new 0 0 100 100;" xml:space="preserve"><g><g i:extraneous="self"><g><path d="M5273.1,2400.1v-2c0-2.8-5-4-9.7-4s-9.7,1.3-9.7,4v2c0,1.8,0.7,3.6,2,4.9l5,4.9c0.3,0.3,0.4,0.6,0.4,1v6.4     c0,0.4,0.2,0.7,0.6,0.8l2.9,0.9c0.5,0.1,1-0.2,1-0.8v-7.2c0-0.4,0.2-0.7,0.4-1l5.1-5C5272.4,2403.7,5273.1,2401.9,5273.1,2400.1z      M5263.4,2400c-4.8,0-7.4-1.3-7.5-1.8v0c0.1-0.5,2.7-1.8,7.5-1.8c4.8,0,7.3,1.3,7.5,1.8C5270.7,2398.7,5268.2,2400,5263.4,2400z"></path><path d="M5268.4,2410.3c-0.6,0-1,0.4-1,1c0,0.6,0.4,1,1,1h4.3c0.6,0,1-0.4,1-1c0-0.6-0.4-1-1-1H5268.4z"></path><path d="M5272.7,2413.7h-4.3c-0.6,0-1,0.4-1,1c0,0.6,0.4,1,1,1h4.3c0.6,0,1-0.4,1-1C5273.7,2414.1,5273.3,2413.7,5272.7,2413.7z"></path><path d="M5272.7,2417h-4.3c-0.6,0-1,0.4-1,1c0,0.6,0.4,1,1,1h4.3c0.6,0,1-0.4,1-1C5273.7,2417.5,5273.3,2417,5272.7,2417z"></path></g><path d="M85.7,7.6H14.3c-6.5,0-11.8,5.3-11.8,11.8v61.2c0,6.5,5.3,11.8,11.8,11.8h8.3c1.3-4.3,5.8-16.4,16.6-22.6    c15.6-8.9,8.7-13.3,4.4-17.2c-3.7-3.3-3-13.5,13-19.8c16-6.3,9.1-8.9,9.1-8.9s7.3,0.4,1.7,7.4c-5.6,7-18.2,9.1-9.6,17.2    c7,6.6,22.3,11,5.3,24.5c-9.1,7.2-5.5,15.8-3.4,19.4h26c6.5,0,11.8-5.3,11.8-11.8V19.4C97.5,12.9,92.2,7.6,85.7,7.6z M32.2,57.7    c0,0.1-0.1,0.2-0.4,0.2H24l0.4,10.4c-0.2,0.1-0.7,0.1-1.7,0.1c-1,0-1.4-0.1-1.7-0.1L21.4,58h-7.8c-0.2,0-0.3-0.2-0.4-0.2    c0-0.1-0.1-0.3,0-0.4l5.1-6.3h-3.7c-0.1,0-0.2-0.1-0.2-0.1c0-0.1,0-0.1,0-0.2l4.8-6h-2.7l6.1-7.8l6.3,7.8h-2.7l4.8,6    c0.1,0.1,0.1,0.2,0,0.2c0,0.1-0.1,0.1-0.2,0.1h-3.7l5.1,6.3l0,0C32.3,57.5,32.2,57.7,32.2,57.7z M44.4,28.2H40l0.2,5.9    c-0.1,0-0.4,0.1-1,0.1c-0.6,0-0.8,0-1-0.1l0.2-5.9H34c-0.1,0-0.2-0.1-0.2-0.1c0,0-0.1-0.1,0-0.2l2.9-3.6h-2.1    c-0.1,0-0.1,0-0.1-0.1c0,0,0-0.1,0-0.1l2.8-3.4h-1.6l3.5-4.5l3.6,4.5h-1.6l2.8,3.4c0,0,0,0.1,0,0.1c0,0,0,0.1-0.1,0.1h-2.1    l2.9,3.6h0c0.1,0.1,0,0.2,0,0.2C44.6,28.1,44.6,28.2,44.4,28.2z M85.3,45.8h-4.5l0.2,5.9c-0.1,0-0.4,0.1-1,0.1c-0.6,0-0.8,0-1-0.1    l0.2-5.9h-4.5c-0.1,0-0.2-0.1-0.2-0.1c0,0-0.1-0.1,0-0.2l2.9-3.6h-2.1c-0.1,0-0.1,0-0.1-0.1c0,0,0-0.1,0-0.1l2.8-3.4h-1.6l3.5-4.5    l3.6,4.5H82l2.8,3.4c0,0,0,0.1,0,0.1c0,0,0,0.1-0.1,0.1h-2.1l2.9,3.6h0c0.1,0.1,0,0.2,0,0.2C85.5,45.7,85.4,45.8,85.3,45.8z"></path></g></g></svg></g></svg>