<svg xmlns="http://www.w3.org/2000/svg" xmlns:xlink="http://www.w3.org/1999/xlink" width="100" height="100" viewBox="0 0 100 100"><circle stroke="none" fill="#0059B3" r="48%" cx="50%" cy="50%"></circle><g transform="translate(50 50) scale(0.69 0.69) rotate(0) translate(-50 -50)" style="fill:#FFFFFF"><svg fill="#FFFFFF" xmlns="http://www.w3.org/2000/svg" xmlns:xlink="http://www.w3.org/1999/xlink" version="1.1" x="0px" y="0px" viewBox="0 0 100 100" style="enable-background:new 0 0 100 100;" xml:space="preserve"><path d="M88.2817383,30.2353516c0.3837891,0.3974609,1.0170898,0.4072266,1.4140625,0.0234375  c0.3964844-0.3847656,0.4067383-1.0175781,0.0224609-1.4140625L78.4624023,17.21875  c-0.0015869-0.0016479-0.0040283-0.0020752-0.0056152-0.0037231c-0.1815186-0.1850586-0.4329834-0.3009644-0.7126465-0.3009644  s-0.5311279,0.1159058-0.7126465,0.3009644c-0.0015869,0.0016479-0.0040283,0.0020752-0.0056152,0.0037231L65.7705078,28.8447266  c-0.3842773,0.3964844-0.3740234,1.0292969,0.0224609,1.4140625c0.1943359,0.1875,0.4453125,0.28125,0.6958008,0.28125  c0.2612305,0,0.5224609-0.1015625,0.7182617-0.3046875l9.5371094-9.8508911v5.2044067L65.7705078,36.9238281  c-0.3842773,0.3964844-0.3740234,1.0292969,0.0224609,1.4140625c0.3964844,0.3828125,1.0302734,0.3740234,1.4140625-0.0234375  l9.5371094-9.8508911v5.2034302L65.7705078,45.0029297c-0.3842773,0.3964844-0.3740234,1.0292969,0.0229492,1.4140625  c0.3955078,0.3828125,1.0297852,0.3740234,1.4135742-0.0234375l9.5371094-9.8517456v5.3605347L65.7705078,53.2373047  c-0.3842773,0.3964844-0.3740234,1.0292969,0.0224609,1.4140625c0.1943359,0.1875,0.4453125,0.28125,0.6958008,0.28125  c0.2612305,0,0.5224609-0.1015625,0.7182617-0.3046875l9.5371094-9.8508911V68.1875H39.7895508c-0.5522461,0-1,0.4472656-1,1  s0.4477539,1,1,1h36.9545898v9.4033203H51.7529297c-0.5522461,0-1,0.4472656-1,1s0.4477539,1,1,1h37.1391602  c0.5522461,0,1-0.4472656,1-1s-0.4477539-1-1-1H78.7441406V70.1875h10.1479492c0.5522461,0,1-0.4472656,1-1s-0.4477539-1-1-1  H78.7441406V44.7769775l9.5375977,9.8509521c0.3837891,0.3974609,1.0170898,0.40625,1.4140625,0.0234375  c0.3964844-0.3847656,0.4067383-1.0175781,0.0224609-1.4140625L78.7441406,41.9023438V36.541748l9.5375977,9.8518066  C88.4775391,46.5966797,88.7387695,46.6982422,89,46.6982422c0.2504883,0,0.5014648-0.09375,0.6953125-0.28125  c0.3969727-0.3847656,0.4072266-1.0175781,0.0229492-1.4140625L78.7441406,33.6669922V28.463501l9.5375977,9.8509521  C88.4775391,38.5175781,88.7387695,38.6191406,89,38.6191406c0.2504883,0,0.5014648-0.09375,0.6958008-0.28125  c0.3964844-0.3847656,0.4067383-1.0175781,0.0224609-1.4140625L78.7441406,25.5888672v-5.2044678L88.2817383,30.2353516z"></path><path d="M14.0248413,79.5908203H10.980957c-0.5522461,0-1,0.4472656-1,1s0.4477539,1,1,1h25.5625c0.5522461,0,1-0.4472656,1-1  s-0.4477539-1-1-1h-5.328064c-0.1641846-3.9983521-3.0535278-7.3057251-6.8618774-8.0873413V51.0026245l8.6899414,8.9758911  c0.3833008,0.3974609,1.0170898,0.40625,1.4140625,0.0234375c0.3964844-0.3847656,0.4067383-1.0175781,0.0224609-1.4140625  L24.3535156,48.1279297v-4.7404175l8.6899414,8.9767456c0.1958008,0.203125,0.4570312,0.3046875,0.7182617,0.3046875  c0.2504883,0,0.5014648-0.09375,0.6953125-0.28125c0.3969727-0.3847656,0.4072266-1.0175781,0.0229492-1.4140625  L24.3535156,40.5126953v-4.5958862l8.6899414,8.9767456c0.1958008,0.203125,0.4570312,0.3046875,0.7182617,0.3046875  c0.2504883,0,0.5014648-0.09375,0.6953125-0.28125c0.3969727-0.3847656,0.4072266-1.0175781,0.0229492-1.4140625  L24.3535156,33.0419922V28.446106l8.6899414,8.9767456c0.1958008,0.203125,0.4570312,0.3046875,0.7182617,0.3046875  c0.2504883,0,0.5014648-0.09375,0.6953125-0.28125c0.3969727-0.3847656,0.4072266-1.0175781,0.0229492-1.4140625  L24.0717773,25.2802734c-0.0015869-0.0016479-0.0040283-0.0020752-0.0056152-0.0037231  c-0.1814575-0.1850586-0.4329224-0.3009644-0.7126465-0.3009644s-0.531189,0.1159058-0.7126465,0.3009644  c-0.0015869,0.0016479-0.0040283,0.0020752-0.0056152,0.0037231L12.2265625,36.0322266  c-0.3842773,0.3964844-0.3740234,1.0292969,0.0229492,1.4140625c0.3955078,0.3828125,1.0297852,0.3740234,1.4135742-0.0234375  l8.6904297-8.9768066v4.5959473L12.2265625,43.5029297c-0.3842773,0.3964844-0.3740234,1.0292969,0.0229492,1.4140625  c0.3955078,0.3818359,1.0297852,0.3740234,1.4135742-0.0234375l8.6904297-8.9768066v4.5959473L12.2265625,50.9736328  c-0.3842773,0.3964844-0.3740234,1.0292969,0.0229492,1.4140625c0.3955078,0.3828125,1.0297852,0.3740234,1.4135742-0.0234375  l8.6904297-8.9768066v4.7404785L12.2265625,58.5878906c-0.3842773,0.3964844-0.3740234,1.0292969,0.0224609,1.4140625  c0.1943359,0.1875,0.4453125,0.28125,0.6958008,0.28125c0.2612305,0,0.5224609-0.1015625,0.7182617-0.3046875l8.6904297-8.9759521  v20.3390503c-0.543457,0.0167847-1.0748901,0.079834-1.5887451,0.1932983  c-0.541626-2.4390869-2.7176514-4.2702637-5.31604-4.2702637C12.4443359,67.2646484,10,69.7109375,10,72.7167969  c0,0.5527344,0.4477539,1,1,1s1-0.4472656,1-1c0-1.9033203,1.546875-3.4521484,3.4487305-3.4521484  c1.7288818,0,3.1508789,1.2839355,3.397644,2.9465942C16.0869141,73.5647583,14.1580811,76.3464355,14.0248413,79.5908203z   M22.6201172,73.328125c3.5266113,0,6.4090576,2.7789307,6.5952759,6.2626953H16.0248413  C16.2110596,76.1070557,19.0935059,73.328125,22.6201172,73.328125z"></path><path d="M43.6425781,23.2470703c0,3.4921875,2.8398438,6.3339844,6.3305664,6.3339844s6.3305664-2.8417969,6.3305664-6.3339844  s-2.8398438-6.3339844-6.3305664-6.3339844S43.6425781,19.7548828,43.6425781,23.2470703z M49.9731445,18.9130859  c2.3876953,0,4.3305664,1.9443359,4.3305664,4.3339844s-1.9428711,4.3339844-4.3305664,4.3339844  s-4.3305664-1.9443359-4.3305664-4.3339844S47.5854492,18.9130859,49.9731445,18.9130859z"></path><path d="M50.9731445,14.1572266V11c0-0.5527344-0.4477539-1-1-1s-1,0.4472656-1,1v3.1572266c0,0.5527344,0.4477539,1,1,1  S50.9731445,14.7099609,50.9731445,14.1572266z"></path><path d="M44.7197266,12.140625c-0.2768555-0.4775391-0.8876953-0.6425781-1.3662109-0.3662109  c-0.4780273,0.2763672-0.6420898,0.8876953-0.3662109,1.3662109l1.578125,2.734375c0.1855469,0.3203125,0.5214844,0.5,0.8671875,0.5  c0.1694336,0,0.3413086-0.0429688,0.4990234-0.1337891c0.4780273-0.2763672,0.6420898-0.8876953,0.3662109-1.3662109  L44.7197266,12.140625z"></path><path d="M39.8740234,16.2578125c-0.4794922-0.2763672-1.0898438-0.1132812-1.3662109,0.3662109  c-0.2758789,0.4785156-0.1123047,1.0898438,0.3662109,1.3662109l2.7329102,1.578125  c0.1572266,0.0908203,0.3295898,0.1337891,0.4990234,0.1337891c0.3457031,0,0.6816406-0.1787109,0.8671875-0.5  c0.2758789-0.4785156,0.1123047-1.0898438-0.3662109-1.3662109L39.8740234,16.2578125z"></path><path d="M36.734375,23.2470703c0,0.5527344,0.4477539,1,1,1h3.1552734c0.5522461,0,1-0.4472656,1-1s-0.4477539-1-1-1H37.734375  C37.1821289,22.2470703,36.734375,22.6943359,36.734375,23.2470703z"></path><path d="M42.9726562,27.2919922c-0.2763672-0.4794922-0.8886719-0.6425781-1.3662109-0.3662109l-2.7329102,1.5791016  c-0.4780273,0.2763672-0.6416016,0.8886719-0.3652344,1.3662109c0.1850586,0.3212891,0.5209961,0.5,0.8666992,0.5  c0.1699219,0,0.3417969-0.0429688,0.4995117-0.1337891l2.7329102-1.5791016  C43.0854492,28.3818359,43.2490234,27.7695312,42.9726562,27.2919922z"></path><path d="M43.3535156,34.7197266c0.1577148,0.0908203,0.3295898,0.1337891,0.4990234,0.1337891  c0.3457031,0,0.6816406-0.1796875,0.8671875-0.5l1.578125-2.734375c0.2758789-0.4785156,0.1118164-1.0898438-0.3662109-1.3662109  c-0.4799805-0.2763672-1.0898438-0.1113281-1.3662109,0.3662109l-1.578125,2.734375  C42.7114258,33.8320312,42.8754883,34.4433594,43.3535156,34.7197266z"></path><path d="M48.9731445,32.3369141v3.1572266c0,0.5527344,0.4477539,1,1,1s1-0.4472656,1-1v-3.1572266c0-0.5527344-0.4477539-1-1-1  S48.9731445,31.7841797,48.9731445,32.3369141z"></path><path d="M55.3808594,30.6191406c-0.2763672-0.4775391-0.8881836-0.6425781-1.3657227-0.3662109  c-0.4785156,0.2763672-0.6425781,0.8876953-0.3666992,1.3662109l1.5776367,2.734375  c0.1850586,0.3203125,0.5214844,0.5,0.8671875,0.5c0.1694336,0,0.3413086-0.0429688,0.4985352-0.1337891  c0.4785156-0.2763672,0.6425781-0.8876953,0.3666992-1.3662109L55.3808594,30.6191406z"></path><path d="M60.0717773,30.2373047c0.1577148,0.0908203,0.3295898,0.1337891,0.4995117,0.1337891  c0.3457031,0,0.6816406-0.1787109,0.8666992-0.5c0.2763672-0.4775391,0.112793-1.0898438-0.3652344-1.3662109l-2.7329102-1.5791016  c-0.4790039-0.2763672-1.090332-0.1132812-1.3662109,0.3662109c-0.2763672,0.4775391-0.112793,1.0898438,0.3652344,1.3662109  L60.0717773,30.2373047z"></path><path d="M63.2119141,23.2470703c0-0.5527344-0.4477539-1-1-1h-3.1557617c-0.5522461,0-1,0.4472656-1,1s0.4477539,1,1,1h3.1557617  C62.7641602,24.2470703,63.2119141,23.7998047,63.2119141,23.2470703z"></path><path d="M60.0722656,16.2578125l-2.7329102,1.578125c-0.4785156,0.2763672-0.6420898,0.8876953-0.3662109,1.3662109  c0.1855469,0.3212891,0.5214844,0.5,0.8671875,0.5c0.1694336,0,0.3417969-0.0429688,0.4990234-0.1337891l2.7329102-1.578125  c0.4785156-0.2763672,0.6420898-0.8876953,0.3662109-1.3662109C61.1616211,16.1445312,60.5493164,15.9814453,60.0722656,16.2578125z  "></path><path d="M56.5917969,11.7744141c-0.4780273-0.2763672-1.090332-0.1113281-1.3657227,0.3662109L53.6484375,14.875  c-0.2758789,0.4785156-0.1118164,1.0898438,0.3666992,1.3662109C54.1723633,16.3320312,54.3442383,16.375,54.5136719,16.375  c0.3457031,0,0.6821289-0.1796875,0.8671875-0.5l1.5776367-2.734375  C57.234375,12.6621094,57.0703125,12.0507812,56.5917969,11.7744141z"></path><path d="M88.980957,84.8896484c-2.0258789,0-3.0874023,1.0166016-3.9404297,1.8330078  C84.265625,87.4638672,83.7060547,88,82.4829102,88s-1.7832031-0.5361328-2.5581055-1.2773438  c-0.8530273-0.8164062-1.9145508-1.8330078-3.940918-1.8330078c-2.0249023,0-3.0854492,1.0166016-3.9379883,1.8330078  C71.2719727,87.4638672,70.7128906,88,69.4912109,88c-1.2226562,0-1.7822266-0.5361328-2.5571289-1.2773438  c-0.8525391-0.8164062-1.9140625-1.8330078-3.9394531-1.8330078c-2.0263672,0-3.0878906,1.0166016-3.940918,1.8330078  C58.2788086,87.4638672,57.71875,88,56.4956055,88s-1.7832031-0.5361328-2.5581055-1.2773438  c-0.8530273-0.8164062-1.9145508-1.8330078-3.940918-1.8330078s-3.0878906,1.0166016-3.940918,1.8330078  C45.2807617,87.4638672,44.7207031,88,43.4970703,88s-1.7836914-0.5361328-2.5585938-1.2773438  c-0.8530273-0.8164062-1.9150391-1.8330078-3.9418945-1.8330078c-2.0258789,0-3.0874023,1.0166016-3.9404297,1.8330078  C32.28125,87.4638672,31.7216797,88,30.4990234,88c-1.2246094,0-1.784668-0.5361328-2.5600586-1.2773438  c-0.8535156-0.8173828-1.9160156-1.8330078-3.9428711-1.8330078c-2.0283203,0-3.0908203,1.015625-3.9448242,1.8320312  C19.2749023,87.4638672,18.7143555,88,17.4887695,88c-1.2260742,0-1.7866211-0.5361328-2.5629883-1.2783203  c-0.8540039-0.8164062-1.9169922-1.8320312-3.9448242-1.8320312c-0.5522461,0-1,0.4472656-1,1s0.4477539,1,1,1  c1.2260742,0,1.7866211,0.5361328,2.5629883,1.2783203C14.3979492,88.984375,15.4609375,90,17.4887695,90  s3.090332-1.015625,3.9443359-1.8320312c0.7763672-0.7421875,1.3369141-1.2783203,2.5629883-1.2783203  c1.2246094,0,1.784668,0.5361328,2.5600586,1.2773438C27.409668,88.984375,28.472168,90,30.4990234,90  c2.0258789,0,3.0874023-1.0166016,3.9399414-1.8330078c0.7749023-0.7412109,1.3344727-1.2773438,2.5576172-1.2773438  c1.2241211,0,1.7841797,0.5361328,2.559082,1.2773438C40.4086914,88.9833984,41.4707031,90,43.4970703,90  s3.0883789-1.0166016,3.9414062-1.8330078c0.7749023-0.7412109,1.3349609-1.2773438,2.5581055-1.2773438  s1.7832031,0.5361328,2.5581055,1.2773438C53.4077148,88.9833984,54.4692383,90,56.4956055,90  s3.0878906-1.0166016,3.940918-1.8330078c0.7749023-0.7412109,1.3349609-1.2773438,2.5581055-1.2773438  c1.222168,0,1.7817383,0.5361328,2.5566406,1.2773438C66.4038086,88.9833984,67.465332,90,69.4912109,90  c2.0249023,0,3.0859375-1.0166016,3.9384766-1.8330078c0.7739258-0.7412109,1.3330078-1.2773438,2.5541992-1.2773438  c1.2231445,0,1.7832031,0.5361328,2.5581055,1.2773438C79.3950195,88.9833984,80.456543,90,82.4829102,90  c2.0258789,0,3.0874023-1.0166016,3.9404297-1.8330078c0.7749023-0.7412109,1.3344727-1.2773438,2.5576172-1.2773438  c0.5522461,0,1-0.4472656,1-1S89.5332031,84.8896484,88.980957,84.8896484z"></path></svg></g></svg>