<svg xmlns="http://www.w3.org/2000/svg" xmlns:xlink="http://www.w3.org/1999/xlink" width="100" height="100" viewBox="0 0 100 100"><svg viewBox="0 0 99.999997 99.999997"><g transform="translate(-149.6453,-589.21878)"><path d="m 199.64552,591.21879 a 48.000099,48.000099 0 0 0 -48.00022,48.00022 48.000099,48.000099 0 0 0 48.00022,47.99977 48.000099,48.000099 0 0 0 47.99977,-47.99977 48.000099,48.000099 0 0 0 -47.99977,-48.00022 z m 0,5.42088 a 42.107528,42.578935 0 0 1 42.10718,42.57934 42.107528,42.578935 0 0 1 -42.10718,42.57887 42.107528,42.578935 0 0 1 -42.10763,-42.57887 42.107528,42.578935 0 0 1 42.10763,-42.57934 z" fill="#44CC00"></path></g></svg><g transform="translate(50 50) scale(0.69 0.69) rotate(0) translate(-50 -50)" style="fill:#000000"><svg fill="#000000" xmlns:x="http://ns.adobe.com/Extensibility/1.0/" xmlns:i="http://ns.adobe.com/AdobeIllustrator/10.0/" xmlns:graph="http://ns.adobe.com/Graphs/1.0/" xmlns="http://www.w3.org/2000/svg" xmlns:xlink="http://www.w3.org/1999/xlink" version="1.1" x="0px" y="0px" viewBox="0 0 69 77" enable-background="new 0 0 69 77" xml:space="preserve"><g><g i:extraneous="self"><g><path d="M34.499,31c-4.144,0-7.5,3.358-7.5,7.498c0,4.139,3.356,7.502,7.5,7.502c4.142,0,7.5-3.363,7.5-7.502     C42,34.358,38.641,31,34.499,31z M11.875,38.5c0-1.863-1.513-3.375-3.377-3.375c-1.863,0-3.373,1.512-3.373,3.375     c0,1.864,1.51,3.375,3.373,3.375C10.362,41.875,11.875,40.364,11.875,38.5z M47.5,57.775c-1.86,0-3.375,1.51-3.375,3.379     c0,1.863,1.515,3.371,3.375,3.371c1.864,0,3.375-1.508,3.375-3.371C50.875,59.285,49.364,57.775,47.5,57.775z M44.125,15.851     c0,1.865,1.512,3.374,3.375,3.374s3.375-1.509,3.375-3.374s-1.512-3.376-3.375-3.376S44.125,13.986,44.125,15.851z M67.982,19.25     c-2.292-3.957-8.143-5.361-15.729-4.449c0.074,0.339,0.12,0.688,0.12,1.05c0,0.704-0.155,1.369-0.424,1.973     c5.386-0.209,9.489,1.139,11.251,4.176c2.112,3.647,0.431,8.988-3.959,14.558c-2.494-2.483-5.406-4.952-8.668-7.313     c-0.33-3.107-0.826-6.058-1.458-8.815c-0.509,0.179-1.047,0.295-1.616,0.295c-0.279,0-0.549-0.037-0.815-0.082     c0.608,2.15,1.11,4.472,1.488,6.926c-1.717-1.155-3.513-2.279-5.387-3.357c-1.878-1.08-3.759-2.068-5.626-2.973     c2.302-0.893,4.551-1.615,6.707-2.164c-0.543-0.61-0.943-1.348-1.125-2.175c-2.667,0.826-5.43,1.86-8.242,3.105     c-3.678-1.628-7.275-2.903-10.678-3.812C26.471,9.621,30.272,5.5,34.499,5.5c3.466,0,6.648,2.777,9.141,7.401     c0.627-0.819,1.503-1.424,2.52-1.716C43.167,4.278,39.049,0,34.499,0c-5.448,0-10.28,6.116-13.298,15.553     c-9.72-2.116-17.459-1.005-20.186,3.697c-2.297,3.964-0.584,9.724,4.019,15.822c0.714-0.721,1.655-1.205,2.703-1.369     C4.905,29.195,4.05,25.017,5.799,22c2.116-3.648,7.605-4.868,14.647-3.866c-0.91,3.388-1.6,7.126-2.023,11.112     c-2.482,1.797-4.759,3.656-6.807,5.537c0.626,0.526,1.12,1.195,1.419,1.971c1.53-1.55,3.244-3.093,5.13-4.598     c-0.147,2.064-0.228,4.182-0.228,6.344c0,2.161,0.081,4.278,0.228,6.343c-1.886-1.506-3.601-3.048-5.13-4.599     c-0.299,0.777-0.793,1.446-1.42,1.972c2.048,1.882,4.325,3.742,6.808,5.539c0.423,3.984,1.113,7.722,2.023,11.109     c-7.042,1.002-12.532-0.217-14.647-3.865c-1.75-3.017-0.894-7.194,1.939-11.702c-1.049-0.165-1.99-0.647-2.703-1.367     c-4.604,6.097-6.317,11.856-4.02,15.82c2.726,4.703,10.465,5.813,20.186,3.696C24.219,70.884,29.051,77,34.499,77     c4.551,0,8.668-4.278,11.661-11.186c-1.017-0.293-1.893-0.897-2.52-1.716c-2.493,4.624-5.675,7.401-9.141,7.401     c-4.227,0-8.028-4.122-10.677-10.693c3.403-0.908,7-2.183,10.678-3.811c2.813,1.244,5.577,2.279,8.245,3.105     c0.182-0.828,0.582-1.566,1.125-2.178c-2.155-0.549-4.404-1.271-6.707-2.163c1.866-0.904,3.746-1.892,5.623-2.971     c1.874-1.077,3.67-2.201,5.387-3.357c-0.378,2.453-0.88,4.773-1.487,6.923c0.266-0.045,0.535-0.083,0.814-0.083     c0.569,0.001,1.108,0.117,1.616,0.298c0.632-2.758,1.128-5.707,1.458-8.813c3.261-2.361,6.173-4.83,8.668-7.314     c4.39,5.57,6.071,10.911,3.959,14.557c-1.762,3.037-5.867,4.385-11.255,4.175c0.27,0.606,0.427,1.273,0.428,1.979     c0,0.36-0.045,0.708-0.119,1.046c7.585,0.912,13.436-0.492,15.728-4.449c2.726-4.701-0.175-11.928-6.871-19.25     C67.807,31.178,70.708,23.951,67.982,19.25z M22.952,18.571c2.802,0.575,5.798,1.469,8.889,2.667     c-1.867,0.904-3.746,1.893-5.624,2.972c-1.875,1.078-3.672,2.203-5.39,3.359C21.33,24.305,22.051,21.275,22.952,18.571z      M22.951,58.427c-0.9-2.703-1.621-5.732-2.124-8.995c1.718,1.156,3.515,2.28,5.39,3.358c1.876,1.079,3.754,2.066,5.621,2.971     C28.748,56.958,25.752,57.852,22.951,58.427z M48.55,46.588c-2.105,1.538-4.38,3.021-6.803,4.414     c-2.425,1.395-4.855,2.615-7.248,3.662c-2.393-1.047-4.823-2.268-7.249-3.662c-2.422-1.393-4.697-2.877-6.801-4.414     c-0.286-2.589-0.44-5.297-0.44-8.088c0-2.792,0.154-5.5,0.44-8.089c2.104-1.538,4.379-3.022,6.801-4.415     c2.425-1.395,4.856-2.615,7.249-3.662c2.393,1.047,4.823,2.268,7.248,3.662c2.423,1.393,4.697,2.877,6.802,4.415     c0.287,2.589,0.44,5.298,0.44,8.089C48.99,41.291,48.836,43.999,48.55,46.588z M50.832,44.843     c0.147-2.064,0.228-4.181,0.228-6.343s-0.08-4.28-0.228-6.345c2.593,2.07,4.873,4.211,6.777,6.344     C55.705,40.633,53.425,42.773,50.832,44.843z"></path></g></g></g></svg></g></svg>