<svg xmlns="http://www.w3.org/2000/svg" xmlns:xlink="http://www.w3.org/1999/xlink" width="100" height="100" viewBox="0 0 100 100"><svg viewBox="0 0 99.999997 99.999997"><g transform="translate(-149.6453,-589.21878)"><path d="m 199.64552,591.21879 a 48.000099,48.000099 0 0 0 -48.00022,48.00022 48.000099,48.000099 0 0 0 48.00022,47.99977 48.000099,48.000099 0 0 0 47.99977,-47.99977 48.000099,48.000099 0 0 0 -47.99977,-48.00022 z m 0,5.42088 a 42.107528,42.578935 0 0 1 42.10718,42.57934 42.107528,42.578935 0 0 1 -42.10718,42.57887 42.107528,42.578935 0 0 1 -42.10763,-42.57887 42.107528,42.578935 0 0 1 42.10763,-42.57934 z" fill="#44CC00"></path></g></svg><g transform="translate(50 50) scale(0.69 0.69) rotate(0) translate(-50 -50)" style="fill:#000000"><svg fill="#000000" xmlns="http://www.w3.org/2000/svg" xmlns:xlink="http://www.w3.org/1999/xlink" version="1.1" x="0px" y="0px" viewBox="0 0 100 100" enable-background="new 0 0 100 100" xml:space="preserve"><g><path d="M39.611,26.47c-6.233-1.25-10.282-7.383-9.023-13.684c1.266-6.313,7.361-10.399,13.598-9.15   c6.244,1.252,10.278,7.361,9.017,13.678C51.943,23.612,45.858,27.717,39.611,26.47"></path></g><g><path d="M92.434,84.059H70.938c0,0,19.222-21.189,19.306-21.309c0.713-0.742,1.306-1.449,1.822-2.338   c2.667-4.588,2.181-10.546-1.56-13.958c-0.037-0.048-22.945-22.783-22.945-22.783c-2.066-2.116-4.239-3.336-6.447-3.542   c-4.098-0.383-6.89,2.903-7.723,4.234L35.866,53.775H20.11v-4.269c0-0.848-0.687-1.535-1.533-1.535   c-0.848,0-1.535,0.687-1.535,1.535v4.269h-2.511c-3.305,0-5.983,2.678-5.983,5.982c0,3.307,2.679,5.986,5.983,5.986h2.511v19.113   C4.813,85.664,0.449,95.914,0.449,95.914h36.255c0,0-5.286-10.182-16.594-11.047V65.744h19.156c2.108,0,4.062-1.109,5.141-2.924   l10.54-17.688l13.594,13.699L54.776,84.229c-0.633,1.094-2.477,4.758-1.1,7.908c1.08,2.473,3.042,3.777,5.235,3.777h33.521   c3.659,0,6.569-2.65,6.569-5.938C99.003,86.705,96.278,84.059,92.434,84.059z"></path><path d="M4.102,38.332c-0.447,2.522,1.419,5.601,4.685,7.384c3.264,1.782,6.864,1.69,8.744-0.049   c0.447-2.522-1.421-5.601-4.685-7.384C9.581,36.5,5.981,36.593,4.102,38.332z"></path><path d="M8.979,22.331c-1.755,1.864-1.88,5.462-0.126,8.743c1.754,3.279,4.817,5.175,7.342,4.749   c1.756-1.864,1.88-5.463,0.126-8.744C14.567,23.8,11.505,21.906,8.979,22.331z"></path><path d="M30.104,29.982c1.248,2.236,0.491,5.757-2.009,8.511c-2.5,2.752-5.932,3.844-8.278,2.816   c-1.248-2.235-0.492-5.757,2.009-8.51C24.326,30.046,27.758,28.955,30.104,29.982z"></path></g></svg></g></svg>