<svg xmlns="http://www.w3.org/2000/svg" xmlns:xlink="http://www.w3.org/1999/xlink" width="100" height="100" viewBox="0 0 100 100"><circle stroke="none" fill="#0059B3" r="48%" cx="50%" cy="50%"></circle><g transform="translate(50 50) scale(0.69 0.69) rotate(0) translate(-50 -50)" style="fill:#FFFFFF"><svg fill="#FFFFFF" xmlns="http://www.w3.org/2000/svg" xmlns:xlink="http://www.w3.org/1999/xlink" xml:space="preserve" version="1.1" style="shape-rendering:geometricPrecision;text-rendering:geometricPrecision;image-rendering:optimizeQuality;" viewBox="0 0 728 708" x="0px" y="0px" fill-rule="evenodd" clip-rule="evenodd"><defs><style type="text/css">
   
    .fil0 {fill:#FFFFFF}
   
  </style></defs><g><path class="fil0" d="M120 419c-25,-15 -47,-30 -64,-46 -24,8 -47,-17 -36,-41 -76,-116 84,-152 169,-154 7,-207 130,-240 239,-64 20,-10 39,-19 58,-26 4,-26 34,-34 52,-14 153,-27 124,120 72,214 189,113 141,236 -70,241 -1,13 -2,26 -4,38 8,4 15,11 17,19 5,19 -8,37 -27,38 -47,157 -166,65 -225,-31 -187,102 -289,18 -181,-174l0 0zm175 -46c-10,-37 13,-77 51,-87 38,-10 77,13 87,50 11,39 -12,78 -50,88 -38,10 -77,-12 -88,-51zm-250 -59c21,-1 36,16 32,37 16,14 35,29 57,43 19,-29 41,-59 65,-88 -5,-35 -9,-67 -10,-98 -55,2 -201,19 -144,106zm355 174c35,-30 68,-62 98,-96 -9,-47 -21,-93 -37,-139 -44,-14 -87,-25 -132,-33 -36,30 -68,61 -98,95 9,47 21,94 37,139 43,14 87,25 132,34zm-117 2c9,22 19,43 29,62 19,-13 37,-25 57,-39 -29,-7 -57,-14 -86,-23zm157 4c24,3 47,4 69,5 -1,-23 -3,-45 -6,-68 -20,22 -41,42 -63,63zm83 -131c17,-22 32,-43 45,-64 -22,-12 -45,-22 -71,-33 10,33 18,64 26,97zm-77 -146c-9,-22 -19,-43 -29,-61 -19,12 -38,24 -57,39 29,6 58,13 86,22zm-157 -2c-25,-4 -47,-5 -69,-7 1,22 3,44 6,68 20,-22 40,-42 63,-61zm-83 129c-17,22 -32,43 -45,64 22,12 45,22 71,32 -11,-31 -19,-62 -26,-96zm14 -166c32,1 66,4 100,10 27,-22 55,-42 82,-58 -93,-150 -176,-128 -182,48zm323 -76c-6,21 -31,28 -48,14 -17,7 -34,14 -52,24 15,27 28,57 40,90 37,13 71,27 101,43 35,-63 82,-191 -41,-171zm52 212c-18,28 -40,58 -66,87 6,34 10,66 10,97 178,-4 218,-87 56,-184zm-97 296c-9,-14 -6,-31 8,-41 2,-12 2,-26 3,-40 -32,-1 -65,-3 -100,-10 -28,23 -55,42 -82,59 46,72 135,165 171,32zm-213 -44c-14,-26 -28,-57 -40,-88 -36,-14 -70,-28 -100,-44 -92,165 -17,218 140,132z"></path></g></svg></g></svg>