<svg xmlns="http://www.w3.org/2000/svg" xmlns:xlink="http://www.w3.org/1999/xlink" width="100" height="100" viewBox="0 0 100 100"><svg viewBox="0 0 99.999997 99.999997"><g transform="translate(-149.6453,-589.21878)"><path d="m 199.64552,591.21879 a 48.000099,48.000099 0 0 0 -48.00022,48.00022 48.000099,48.000099 0 0 0 48.00022,47.99977 48.000099,48.000099 0 0 0 47.99977,-47.99977 48.000099,48.000099 0 0 0 -47.99977,-48.00022 z m 0,5.42088 a 42.107528,42.578935 0 0 1 42.10718,42.57934 42.107528,42.578935 0 0 1 -42.10718,42.57887 42.107528,42.578935 0 0 1 -42.10763,-42.57887 42.107528,42.578935 0 0 1 42.10763,-42.57934 z" fill="#44CC00"></path></g></svg><g transform="translate(50 50) scale(0.69 0.69) rotate(0) translate(-50 -50)" style="fill:#000000"><svg fill="#000000" xmlns="http://www.w3.org/2000/svg" xmlns:xlink="http://www.w3.org/1999/xlink" xml:space="preserve" version="1.1" style="shape-rendering:geometricPrecision;text-rendering:geometricPrecision;image-rendering:optimizeQuality;" viewBox="0 0 749 771" x="0px" y="0px" fill-rule="evenodd" clip-rule="evenodd"><defs><style type="text/css">
   
    .fil0 {fill:#000000}
   
  </style></defs><g><path class="fil0" d="M688 126l0 268 34 0 0 -70 -15 0 0 -141 42 0 0 141 -15 0 0 82 -46 0 0 177c0,48 -33,88 -77,100l0 77c0,6 -6,11 -12,11l-108 0c-7,0 -12,-5 -12,-11l0 -74 -209 0 0 74c0,6 -6,11 -12,11l-108 0c-7,0 -12,-5 -12,-11l0 -77c-44,-12 -78,-52 -78,-100l0 -177 -45 0 0 -82 -15 0 0 -141 41 0 0 141 -14 0 0 70 33 0 0 -268c0,-168 628,-168 628,0zm-373 482l119 0c7,0 12,6 12,13l0 23c0,6 -5,12 -12,12l-119 0c-7,0 -12,-6 -12,-12l0 -23c0,-7 5,-13 12,-13zm71 -403l0 253 269 0 0 -253 -269 0zm-23 253l0 -253 -269 0 0 253 269 0zm211 -379c13,0 24,10 24,23 0,13 -11,24 -24,24 -13,0 -23,-11 -23,-24 0,-13 10,-23 23,-23zm-411 0c13,0 24,10 24,23 0,13 -11,24 -24,24 -13,0 -24,-11 -24,-24 0,-13 11,-23 24,-23zm84 2l255 0c11,0 21,10 21,21 0,12 -10,22 -21,22l-255 0c-11,0 -21,-10 -21,-22 0,-11 10,-21 21,-21zm-77 453c32,0 58,11 58,25 0,14 -26,26 -58,26 -32,0 -58,-12 -58,-26 0,-14 26,-25 58,-25zm409 0c-32,0 -58,11 -58,25 0,14 26,26 58,26 32,0 57,-12 57,-26 0,-14 -25,-25 -57,-25z"></path></g></svg></g></svg>