<svg xmlns="http://www.w3.org/2000/svg" xmlns:xlink="http://www.w3.org/1999/xlink" width="100" height="100" viewBox="0 0 100 100"><svg viewBox="0 0 99.999997 99.999997"><g transform="translate(-149.6453,-589.21878)"><path d="m 199.64552,591.21879 a 48.000099,48.000099 0 0 0 -48.00022,48.00022 48.000099,48.000099 0 0 0 48.00022,47.99977 48.000099,48.000099 0 0 0 47.99977,-47.99977 48.000099,48.000099 0 0 0 -47.99977,-48.00022 z m 0,5.42088 a 42.107528,42.578935 0 0 1 42.10718,42.57934 42.107528,42.578935 0 0 1 -42.10718,42.57887 42.107528,42.578935 0 0 1 -42.10763,-42.57887 42.107528,42.578935 0 0 1 42.10763,-42.57934 z" fill="#44CC00"></path></g></svg><g transform="translate(50 50) scale(0.69 0.69) rotate(0) translate(-50 -50)" style="fill:#000000"><svg fill="#000000" xmlns="http://www.w3.org/2000/svg" xmlns:xlink="http://www.w3.org/1999/xlink" preserveAspectRatio="xMidYMid" viewBox="0 0 100 100" x="0px" y="0px"><defs><style>
      .cls-1 {
        fill: #000000;
        fill-rule: evenodd;
      }
    </style></defs><g><path d="M80.692,51.238 L52.665,23.074 C50.888,21.980 49.111,21.433 47.333,23.211 L19.306,51.101 C17.802,53.015 18.486,53.563 20.400,53.973 L26.315,53.936 L26.279,75.574 C26.279,75.574 26.187,78.358 29.287,78.358 C32.387,78.358 42.822,78.345 42.822,78.345 L42.808,56.720 L57.190,56.707 L57.177,78.458 C57.177,78.458 68.696,78.445 71.396,78.445 C74.096,78.445 73.770,75.438 73.770,75.438 L73.733,53.973 L79.599,53.936 C81.513,54.346 82.197,52.332 80.692,51.238 Z" class="cls-1"></path><path d="M83.896,77.590 C83.316,78.098 82.556,78.406 81.724,78.406 C79.902,78.406 78.425,78.408 78.425,78.408 L78.435,78.411 L74.096,78.411 C74.823,77.520 74.674,76.188 74.674,76.188 L74.671,74.461 L79.766,74.461 C80.384,74.359 80.944,74.086 81.395,73.691 C86.388,67.088 89.352,58.866 89.352,49.950 C89.352,41.586 86.745,33.831 82.300,27.453 L87.775,27.898 C91.560,34.374 93.730,41.908 93.730,49.950 C93.730,60.433 90.041,70.052 83.896,77.590 ZM83.488,24.265 C83.488,24.265 75.430,22.917 73.200,22.544 C72.445,22.417 73.095,21.889 73.095,21.889 L75.019,19.555 C70.914,16.165 66.111,13.589 60.857,12.078 L65.396,8.976 C69.941,10.690 74.123,13.141 77.802,16.179 L79.774,13.787 C79.774,13.787 80.176,13.069 80.476,13.870 C81.191,15.781 83.305,21.436 84.107,23.582 C84.396,24.465 83.488,24.265 83.488,24.265 ZM59.506,8.773 C59.506,8.773 52.431,12.858 50.472,13.988 C49.809,14.371 49.975,13.550 49.975,13.550 L49.975,10.548 C49.967,10.548 49.958,10.548 49.950,10.548 C43.001,10.548 36.473,12.349 30.805,15.507 L31.824,10.088 C37.347,7.573 43.485,6.170 49.950,6.170 C49.958,6.170 49.967,6.170 49.975,6.170 L49.975,3.050 C49.975,3.050 49.829,2.240 50.569,2.667 C52.337,3.688 57.564,6.706 59.549,7.852 C60.334,8.349 59.506,8.773 59.506,8.773 ZM24.906,24.123 C24.707,24.862 24.244,24.164 24.244,24.164 L22.131,22.051 C14.977,29.184 10.548,39.049 10.548,49.950 C10.548,58.715 13.413,66.809 18.253,73.353 C18.339,73.428 18.425,73.505 18.511,73.588 C18.980,74.038 19.582,74.350 20.252,74.461 L25.379,74.461 L25.376,76.324 C25.376,76.324 25.334,77.586 26.289,78.411 L21.583,78.411 L21.593,78.408 C21.593,78.408 20.116,78.406 18.295,78.406 C17.408,78.406 16.604,78.057 16.011,77.488 C15.891,77.373 15.775,77.266 15.661,77.164 C9.722,69.691 6.170,60.237 6.170,49.950 C6.170,37.840 11.088,26.880 19.034,18.954 L16.819,16.740 C16.819,16.740 16.143,16.270 16.969,16.049 C18.940,15.521 24.771,13.958 26.985,13.365 C27.891,13.162 27.605,14.047 27.605,14.047 C27.605,14.047 25.491,21.938 24.906,24.123 Z" class="cls-1"></path></g></svg></g></svg>