<svg xmlns="http://www.w3.org/2000/svg" xmlns:xlink="http://www.w3.org/1999/xlink" width="100" height="100" viewBox="0 0 100 100"><svg viewBox="0 0 99.999997 99.999997"><g transform="translate(-149.6453,-589.21878)"><path d="m 199.64552,591.21879 a 48.000099,48.000099 0 0 0 -48.00022,48.00022 48.000099,48.000099 0 0 0 48.00022,47.99977 48.000099,48.000099 0 0 0 47.99977,-47.99977 48.000099,48.000099 0 0 0 -47.99977,-48.00022 z m 0,5.42088 a 42.107528,42.578935 0 0 1 42.10718,42.57934 42.107528,42.578935 0 0 1 -42.10718,42.57887 42.107528,42.578935 0 0 1 -42.10763,-42.57887 42.107528,42.578935 0 0 1 42.10763,-42.57934 z" fill="#44CC00"></path></g></svg><g transform="translate(50 50) scale(0.69 0.69) rotate(0) translate(-50 -50)" style="fill:#000000"><svg fill="#000000" xmlns:x="http://ns.adobe.com/Extensibility/1.0/" xmlns:i="http://ns.adobe.com/AdobeIllustrator/10.0/" xmlns:graph="http://ns.adobe.com/Graphs/1.0/" xmlns="http://www.w3.org/2000/svg" xmlns:xlink="http://www.w3.org/1999/xlink" version="1.1" x="0px" y="0px" viewBox="0 0 80 72" enable-background="new 0 0 80 72" xml:space="preserve"><g><g i:extraneous="self"><g><path d="M7.388,25.926l8.126,1.058l2.979-5.795l-7.959-0.986L7.388,25.926z M15.369,11.403l7.697,0.904l2.981-5.788l-7.535-0.832     L15.369,11.403z M11.378,18.666l7.91,0.981l2.982-5.792l-7.747-0.909L11.378,18.666z M24.794,12.51l7.715,0.905l2.819-5.87     l-7.554-0.834L24.794,12.51z M23.997,14.058l-2.984,5.801l7.927,0.983l2.823-5.874L23.997,14.058z M44.608,8.572l-7.564-0.836     l-2.825,5.881l7.731,0.906L44.608,8.572z M58.919,21.172l-8.888-11.66l1.852-4.264c0.114-0.262,0.099-1.083-0.725-1.253     l-35.06-3.989c-0.37-0.042-0.722,0.143-0.897,0.469L0.09,28.786c-0.14,0.26-0.239,1.163,0.674,1.317l4.89,0.655v7.11     c0,0.538,0.394,0.996,0.925,1.074l13.775,2.041l1.073-2.038L7.826,36.931l0.001-5.881l4.679,0.627v3.566l2.563,0.32V32.02     l9.347,1.253l1.717-3.262L5.993,27.388c-0.651-0.116-0.922-0.614-0.607-1.2L17.347,4.426c0.156-0.291,0.475-0.453,0.803-0.417     l27.749,3.066c0.638,0.054,0.91,0.551,0.654,1.142l-6.384,14.28c1.283,0.146,2.644,0.301,4.024,0.458l4.845-11.157l5.04,6.61     v5.672c0.842,0.096,1.58,0.18,2.173,0.247v-3.065l0.938,1.23c0.32,0.461,0.952,0.597,1.521,0.205     C59.274,22.308,59.28,21.652,58.919,21.172z M28.196,22.392l-7.979-0.989l-2.987,5.805l8.142,1.06L28.196,22.392z M33.474,15.171     l-2.828,5.883l7.943,0.984l2.662-5.955L33.474,15.171z"></path><path d="M50.701,38.735l3.105-6.438l-8.315-0.917l-3.285,6.362L50.701,38.735z M43.584,31.169l-8.295-0.913l-3.46,6.272     l8.475,0.99L43.584,31.169z M39.427,39.219l-8.531-0.999l-3.463,6.275l8.713,1.076L39.427,39.219z M26.505,46.183l-3.464,6.279     l8.945,1.161l3.285-6.357L26.505,46.183z M38.042,45.806l8.73,1.078l3.108-6.444l-8.55-1L38.042,45.806z M52.584,38.955     l8.512,0.996l2.928-6.529l-8.327-0.917L52.584,38.955z M37.167,47.5l-3.291,6.368l8.966,1.163l3.108-6.448L37.167,47.5z      M79.726,47.358l-9.828-12.897l2-4.606c0.124-0.288,0.108-1.188-0.796-1.375l-38.443-4.374c-0.404-0.046-0.792,0.156-0.983,0.515     L15.108,55.663c-0.153,0.285-0.264,1.275,0.74,1.443l5.24,0.702v7.931c0,0.591,0.432,1.096,1.018,1.183L56.377,72     c0.058,0.008,0.777-0.147,0.793-0.156l19.038-11.427c0.356-0.214,0.583-0.604,0.583-1.023V47.455l1.031,1.354     c0.354,0.508,1.051,0.657,1.675,0.227C80.119,48.607,80.126,47.886,79.726,47.358z M55.357,62.427v7.002l-31.881-4.722     l0.002-6.577l5.152,0.69v3.74l2.82,0.353v-3.715l8.959,1.201l-2.679-0.332v3.877l2.819,0.353v-3.879l6.23,0.836v4.057l2.92,0.368     v-4.033l5.829,0.781H55.357z M55.064,57.776c-0.145,0.322-0.38,0.583-0.934,0.522l-32.625-4.233     c-0.717-0.127-1.014-0.674-0.67-1.315l13.17-23.877c0.174-0.319,0.525-0.498,0.885-0.458l30.556,3.364     c0.701,0.059,1,0.605,0.722,1.253L55.064,57.776z M74.396,58.719l-16.648,9.984v-6.276h-0.152     c0.141-0.102,0.26-0.236,0.333-0.403l10.876-25.047l5.592,7.337V58.719z M67.979,56.854l3.172-1.587v-4.759l-3.172,1.586V56.854z      M48.65,47.116l8.746,1.08l2.931-6.533l-8.563-1.002L48.65,47.116z M44.717,55.272l8.983,1.166l2.931-6.534l-8.8-1.087     L44.717,55.272z"></path></g></g></g></svg></g></svg>