<svg xmlns="http://www.w3.org/2000/svg" xmlns:xlink="http://www.w3.org/1999/xlink" width="100" height="100" viewBox="0 0 100 100"><svg viewBox="0 0 99.999997 99.999997"><g transform="translate(-149.6453,-589.21878)"><path d="m 199.64552,591.21879 a 48.000099,48.000099 0 0 0 -48.00022,48.00022 48.000099,48.000099 0 0 0 48.00022,47.99977 48.000099,48.000099 0 0 0 47.99977,-47.99977 48.000099,48.000099 0 0 0 -47.99977,-48.00022 z m 0,5.42088 a 42.107528,42.578935 0 0 1 42.10718,42.57934 42.107528,42.578935 0 0 1 -42.10718,42.57887 42.107528,42.578935 0 0 1 -42.10763,-42.57887 42.107528,42.578935 0 0 1 42.10763,-42.57934 z" fill="#44CC00"></path></g></svg><g transform="translate(50 50) scale(0.69 0.69) rotate(0) translate(-50 -50)" style="fill:#000000"><svg fill="#000000" xmlns="http://www.w3.org/2000/svg" xmlns:xlink="http://www.w3.org/1999/xlink" version="1.1" x="0px" y="0px" viewBox="0 0 64 64" enable-background="new 0 0 64 64" xml:space="preserve"><g><path d="M8.706,39.56c0.403,0,0.729-0.327,0.729-0.729V15.285c0-0.895,0.835-1.623,1.863-1.623h41.385   c1.027,0,1.863,0.728,1.863,1.623v23.546c0,0.403,0.327,0.729,0.729,0.729c0.403,0,0.729-0.327,0.729-0.729V15.285   c0-1.7-1.49-3.082-3.322-3.082H32.721v-3.97c1.734-0.341,3.053-1.869,3.053-3.7c0-2.081-1.702-3.783-3.783-3.783   s-3.774,1.702-3.774,3.783c0,1.832,1.312,3.359,3.045,3.7v3.97H11.298c-1.832,0-3.322,1.382-3.322,3.082v23.546   C7.977,39.233,8.304,39.56,8.706,39.56z"></path><path d="M36.892,20.922c0-2.86-2.325-5.184-5.184-5.184s-5.184,2.324-5.184,5.184c0,2.85,2.324,5.174,5.184,5.174   S36.892,23.772,36.892,20.922z"></path><path d="M50.013,47.611c0-0.01,0.01-0.01,0.019,0c0.564,0,0.938-0.634,0.603-1.138l-2.558-6.818   c-0.107-0.282-0.379-0.477-0.691-0.477h-2.48c0.01,0.107,0.019,0.204,0.019,0.311c0.019,0.117,0.029,0.243,0.029,0.36   c0,1.206-0.982,2.188-2.188,2.188H20.669c-1.206,0-2.188-0.982-2.188-2.188c0-0.224,0.01-0.447,0.019-0.671h-1.906   c-0.301,0-0.574,0.195-0.681,0.477l-2.626,6.964c-0.185,0.472,0.195,0.992,0.681,0.992h10.115v-0.729   c0-1.206,0.982-2.188,2.188-2.188h11.438c1.206,0,2.188,0.982,2.188,2.188v0.729H50.013z"></path><path d="M40.501,50.995c-0.126-0.224-0.36-0.36-0.603-0.36v0.72c0,1.206-0.982,2.188-2.188,2.188H26.271   c-1.206,0-2.188-0.982-2.188-2.188v-0.72c-0.243,0-0.477,0.136-0.593,0.36l-2.218,3.9c-0.283,0.5,0.114,1.089,0.632,1.089h20.172   c0,0,0.01,0,0.02,0c0.606,0,0.971-0.711,0.545-1.216L40.501,50.995z"></path><path d="M26.271,46.152c-0.399,0-0.729,0.321-0.729,0.729v4.474c0,0.399,0.331,0.729,0.729,0.729h11.438   c0.399,0,0.73-0.331,0.73-0.729v-4.474c0-0.409-0.331-0.729-0.73-0.729H26.271z"></path><path d="M55.275,54.73c-4.289,0-7.81,3.492-7.839,7.791c-0.019,0.388,0.307,0.729,0.729,0.729h14.229   c0.403,0,0.729-0.328,0.729-0.729C63.094,58.222,59.574,54.73,55.275,54.73z"></path><path d="M55.275,54.224c2.12,0,3.842-1.712,3.842-3.832c0-2.111-1.722-3.832-3.842-3.832C50.235,46.56,50.194,54.224,55.275,54.224   z"></path><path d="M8.716,54.224c2.12,0,3.842-1.712,3.842-3.832c0-2.111-1.722-3.832-3.842-3.832c-2.111,0-3.832,1.721-3.832,3.832   C4.884,52.512,6.605,54.224,8.716,54.224z"></path><path d="M8.716,54.73c-4.289,0-7.81,3.492-7.839,7.791c0,0.449,0.368,0.729,0.729,0.729h14.229c0.403,0,0.729-0.328,0.729-0.729   C16.535,58.222,13.015,54.73,8.716,54.73z"></path><path d="M19.94,39.849c0,0.399,0.331,0.729,0.729,0.729h22.078c0,0,0.01,0,0.019,0c0.399,0,0.729-0.331,0.729-0.729   c0-0.058-0.01-0.117-0.029-0.175c-0.087-6.409-5.33-11.584-11.759-11.584C25.221,28.09,19.94,33.362,19.94,39.849z"></path></g></svg></g></svg>